<svg xmlns="http://www.w3.org/2000/svg" width="190" height="145.259" viewBox="0 0 190 145.259">
  <g id="Group_313" data-name="Group 313" transform="translate(-986 3087.448)">
    <text id="Grow_as_a_musician_and_expand_portfolio" data-name="Grow as a musician and expand portfolio" transform="translate(986 -2971.189)" fill="#fff" font-size="12" font-family="Roboto-Light, Roboto" font-weight="300"><tspan x="11.322" y="11">Grow as a musician and expand </tspan><tspan x="72.825" y="25">portfolio</tspan></text>
    <g id="undraw_portfolio_update_nqhs" transform="translate(1176 -2986.881) rotate(180)">
      <rect id="Rectangle_1538" data-name="Rectangle 1538" width="135.852" height="65.829" transform="translate(27.074 0.25)" fill="#3f3d56"/>
      <ellipse id="Ellipse_147" data-name="Ellipse 147" cx="2.148" cy="2.245" rx="2.148" ry="2.245" transform="translate(164.032 61.678)" fill="none" stroke="#3f3d56" stroke-miterlimit="10" stroke-width="2"/>
      <ellipse id="Ellipse_148" data-name="Ellipse 148" cx="2.148" cy="2.245" rx="2.148" ry="2.245" transform="translate(17.408 72.635)" fill="none" stroke="#3f3d56" stroke-miterlimit="10" stroke-width="2"/>
      <rect id="Rectangle_1539" data-name="Rectangle 1539" width="12.457" height="13.022" transform="translate(73.539 47.953)" fill="#e43a3a" opacity="0.3"/>
      <rect id="Rectangle_1540" data-name="Rectangle 1540" width="12.457" height="13.022" transform="translate(99.63 47.953)" fill="#e43a3a"/>
      <rect id="Rectangle_1541" data-name="Rectangle 1541" width="12.457" height="13.022" transform="translate(125.721 47.953)" fill="#e43a3a"/>
      <rect id="Rectangle_1542" data-name="Rectangle 1542" width="12.457" height="13.022" transform="translate(47.448 25.864)" fill="#e43a3a" opacity="0.3"/>
      <rect id="Rectangle_1543" data-name="Rectangle 1543" width="12.457" height="13.022" transform="translate(73.539 25.864)" fill="#e43a3a"/>
      <rect id="Rectangle_1544" data-name="Rectangle 1544" width="12.457" height="13.022" transform="translate(99.63 25.864)" fill="#e43a3a" opacity="0.3"/>
      <rect id="Rectangle_1545" data-name="Rectangle 1545" width="12.457" height="13.022" transform="translate(125.721 25.864)" fill="#e43a3a" opacity="0.3"/>
      <rect id="Rectangle_1546" data-name="Rectangle 1546" width="12.457" height="13.022" transform="translate(49.635 49.794)" fill="none" stroke="#f2f2f2" stroke-miterlimit="10" stroke-width="2"/>
      <rect id="Rectangle_1547" data-name="Rectangle 1547" width="12.457" height="13.022" transform="translate(75.726 49.794)" fill="none" stroke="#3f3d56" stroke-miterlimit="10" stroke-width="2"/>
      <rect id="Rectangle_1548" data-name="Rectangle 1548" width="12.457" height="13.022" transform="translate(101.817 49.794)" fill="none" stroke="#3f3d56" stroke-miterlimit="10" stroke-width="2"/>
      <rect id="Rectangle_1549" data-name="Rectangle 1549" width="12.457" height="13.022" transform="translate(127.909 49.794)" fill="none" stroke="#3f3d56" stroke-miterlimit="10" stroke-width="2"/>
      <rect id="Rectangle_1550" data-name="Rectangle 1550" width="12.457" height="13.022" transform="translate(49.635 27.704)" fill="none" stroke="#3f3d56" stroke-miterlimit="10" stroke-width="2"/>
      <rect id="Rectangle_1551" data-name="Rectangle 1551" width="12.457" height="13.022" transform="translate(75.726 27.704)" fill="none" stroke="#3f3d56" stroke-miterlimit="10" stroke-width="2"/>
      <rect id="Rectangle_1552" data-name="Rectangle 1552" width="12.457" height="13.022" transform="translate(101.817 27.704)" fill="none" stroke="#3f3d56" stroke-miterlimit="10" stroke-width="2"/>
      <rect id="Rectangle_1553" data-name="Rectangle 1553" width="12.457" height="13.022" transform="translate(127.909 27.704)" fill="none" stroke="#3f3d56" stroke-miterlimit="10" stroke-width="2"/>
      <ellipse id="Ellipse_149" data-name="Ellipse 149" cx="0.611" cy="0.638" rx="0.611" ry="0.638" transform="translate(28.784 74.778)" fill="#e43a3a"/>
      <ellipse id="Ellipse_150" data-name="Ellipse 150" cx="0.611" cy="0.638" rx="0.611" ry="0.638" transform="translate(38.527 74.778)" fill="#e43a3a"/>
      <ellipse id="Ellipse_151" data-name="Ellipse 151" cx="0.611" cy="0.638" rx="0.611" ry="0.638" transform="translate(40.832 74.778)" fill="#e43a3a"/>
      <ellipse id="Ellipse_152" data-name="Ellipse 152" cx="0.611" cy="0.638" rx="0.611" ry="0.638" transform="translate(28.784 74.778)" fill="none" stroke="#3f3d56" stroke-miterlimit="10" stroke-width="2"/>
      <ellipse id="Ellipse_153" data-name="Ellipse 153" cx="0.611" cy="0.638" rx="0.611" ry="0.638" transform="translate(38.527 74.778)" fill="none" stroke="#3f3d56" stroke-miterlimit="10" stroke-width="2"/>
      <ellipse id="Ellipse_154" data-name="Ellipse 154" cx="0.611" cy="0.638" rx="0.611" ry="0.638" transform="translate(40.832 74.778)" fill="none" stroke="#3f3d56" stroke-miterlimit="10" stroke-width="2"/>
      <path id="Path_2281" data-name="Path 2281" d="M6.394,15.179,0,0H39.371Z" transform="translate(19.58 85.388)" fill="#f2f2f2"/>
      <ellipse id="Ellipse_155" data-name="Ellipse 155" cx="2.148" cy="2.245" rx="2.148" ry="2.245" transform="translate(41.366 94.173)" fill="none" stroke="#3f3d56" stroke-miterlimit="10" stroke-width="2"/>
      <ellipse id="Ellipse_156" data-name="Ellipse 156" cx="6.113" cy="6.391" rx="6.113" ry="6.391" transform="translate(157.104 8.619)" fill="#e43a3a"/>
      <path id="Path_2282" data-name="Path 2282" d="M2,4.14,2.258,2.6,5.9,4.413S9.2,6.591,8.6,5.048A3.532,3.532,0,0,0,6.165,3.142S2.258-.489,1.389.056,0,3.6,0,3.6Z" transform="translate(33.963 31.51)" fill="#9f616a"/>
      <path id="Path_2283" data-name="Path 2283" d="M2,4.14,2.258,2.6,5.9,4.413S9.2,6.591,8.6,5.048A3.532,3.532,0,0,0,6.165,3.142S2.258-.489,1.389.056,0,3.6,0,3.6Z" transform="translate(33.963 31.51)" opacity="0.1"/>
      <path id="Path_2284" data-name="Path 2284" d="M4.342,13.616,4.255,8.986,1.91,0,0,.272a11.472,11.472,0,0,1,.261,3.54c-.261,1.18,1.3,4.176,1.3,4.176L.174,14.705Z" transform="translate(36.273 3.727)" fill="#9f616a"/>
      <path id="Path_2285" data-name="Path 2285" d="M2.248,4s.347-.091.347-.363.26-1.452,1.129-1.725S6.33.1,5.027.006,1.727.914,1.38.914.338,1,.164,1.277-.1,4,.164,4.091A14.117,14.117,0,0,0,2.248,4Z" transform="translate(35.795 0)" fill="#2f2e41"/>
      <path id="Path_2286" data-name="Path 2286" d="M10.68,12.345,7.9,7.171.955,0,0,1.815S2.171,5.174,2.258,5.537a14.606,14.606,0,0,0,2.431,2s1.91,3.359,1.563,4.811,4.255,1.725,4.255,1.725Z" transform="translate(20.103 4.635)" fill="#9f616a"/>
      <path id="Path_2287" data-name="Path 2287" d="M3.1,4.819V4.092C3.1,4,1.186,1.823,1.359,1.46S2.228.1,1.446.008.057.643.057,1.551-.117,5.545.144,5.636s1.737.272,1.91.817S3.1,4.819,3.1,4.819Z" transform="translate(18.049 0.27)" fill="#2f2e41"/>
      <ellipse id="Ellipse_157" data-name="Ellipse 157" cx="2.084" cy="2.179" rx="2.084" ry="2.179" transform="translate(23.794 42.375)" fill="#9f616a"/>
      <path id="Path_2288" data-name="Path 2288" d="M2.664,2.692A8.945,8.945,0,0,1,2.837.15C3.1-.122.319.059.319.059A4.424,4.424,0,0,1,.059,2.51C-.462,3.236,2.664,2.692,2.664,2.692Z" transform="translate(24.647 40.428)" fill="#9f616a"/>
      <rect id="Rectangle_1554" data-name="Rectangle 1554" width="12.457" height="13.022" transform="translate(54.658 46.165) rotate(180)" fill="#e43a3a"/>
      <path id="Path_2289" data-name="Path 2289" d="M5.837,20.93a8.776,8.776,0,0,0,3.039-1.271A9.317,9.317,0,0,1,10.7,18.3c.26-.091.868-.545,1.042-2.36s.087-3.177,1.737-4.357,6.86-7.988,5.644-9.35-1.91-1.815-2.431-1.18-.608,1.543-1.737.545-2-2.179-2.518-1.271-3.473,1.089-8.6.363S-.068,2.594.713,3.865a71.4,71.4,0,0,0,6.773,6.989c.782.635-.695,3.722-1.476,4.266S4.534,19.75,5.837,20.93Z" transform="translate(19.042 17.973)" fill="#2f2e41"/>
      <path id="Path_2290" data-name="Path 2290" d="M2,4.14,2.258,2.6,5.9,4.413S9.2,6.591,8.6,5.048A3.532,3.532,0,0,0,6.165,3.142S2.258-.489,1.389.056,0,3.6,0,3.6Z" transform="translate(32.417 30.222)" fill="#9f616a"/>
      <path id="Path_2291" data-name="Path 2291" d="M1.235,5.476S3.406,4.386,3.319,3.025s.261-1.634-.087-1.906S.975-.515.714.211-1.022,4.659,1.235,5.476Z" transform="translate(24.686 33.788)" fill="#2f2e41"/>
      <ellipse id="Ellipse_158" data-name="Ellipse 158" cx="1.814" cy="1.897" rx="1.814" ry="1.897" transform="translate(20.797 47.474)" fill="#2f2e41"/>
      <path id="Path_2292" data-name="Path 2292" d="M.813.664A1.749,1.749,0,0,1,2.46.406,1.862,1.862,0,0,1,3.614,1.66,1.881,1.881,0,0,0,2.426.111,1.757,1.757,0,0,0,.567.52,1.955,1.955,0,0,0,.075,2.438,1.934,1.934,0,0,1,.813.664Z" transform="translate(20.233 46.96)" fill="#2f2e41"/>
      <ellipse id="Ellipse_159" data-name="Ellipse 159" cx="2.692" cy="2.814" rx="2.692" ry="2.814" transform="translate(21.97 43.229)" fill="#2f2e41"/>
      <ellipse id="Ellipse_160" data-name="Ellipse 160" cx="0.304" cy="0.59" rx="0.304" ry="0.59" transform="translate(26.485 43.836)" fill="#9f616a"/>
      <line id="Line_5" data-name="Line 5" x2="135.852" transform="translate(27.074 73.327)" fill="none" stroke="#f2f2f2" stroke-miterlimit="10" stroke-width="2"/>
      <line id="Line_6" data-name="Line 6" x2="190" transform="translate(0 0.25)" fill="none" stroke="#3f3d56" stroke-miterlimit="10" stroke-width="2"/>
    </g>
  </g>
</svg>
