<svg xmlns="http://www.w3.org/2000/svg" width="181.571" height="142.399" viewBox="0 0 181.571 142.399">
  <g id="Group_316" data-name="Group 316" transform="translate(-1971.172 3090.399)">
    <text id="Create_and_share_playlists" data-name="Create and share playlists" transform="translate(1995 -2962)" fill="#fff" font-size="12" font-family="Roboto-Light, Roboto" font-weight="300"><tspan x="0.588" y="11">Create and share playlists</tspan></text>
    <g id="Group_310" data-name="Group 310" transform="translate(1893.246 -3231)">
      <g id="undraw_playlist_5e13" transform="translate(259.497 251.673) rotate(180)">
        <rect id="Rectangle_1536" data-name="Rectangle 1536" width="114.774" height="0.441" transform="translate(66.797 0)" fill="#3f3d56"/>
        <ellipse id="Ellipse_143" data-name="Ellipse 143" cx="2.638" cy="2.638" rx="2.638" ry="2.638" transform="translate(127.24 98.73)" fill="#2f2e41"/>
        <path id="Path_2259" data-name="Path 2259" d="M1.005,1.077a2.639,2.639,0,0,0,1.705,4.2A2.638,2.638,0,1,1,3.038.031,2.632,2.632,0,0,0,1.005,1.077Z" transform="translate(126.47 99.302)" fill="#2f2e41"/>
        <ellipse id="Ellipse_144" data-name="Ellipse 144" cx="7.75" cy="7.75" rx="7.75" ry="7.75" transform="translate(119.642 84.985)" fill="#2f2e41"/>
        <path id="Path_2260" data-name="Path 2260" d="M1.186,10.162a7.749,7.749,0,0,0,10.036,3.913c-.078.039-.156.079-.236.116A7.75,7.75,0,0,1,4.518.1c.08-.037.161-.07.242-.1A7.749,7.749,0,0,0,1.186,10.162Z" transform="translate(119.099 85.377)" fill="#2f2e41"/>
        <path id="Path_2261" data-name="Path 2261" d="M3.937,1.968,1.312,0,0,3.937l2.953.984Z" transform="translate(132.607 59.234)" fill="#ffb8b8"/>
        <path id="Path_2262" data-name="Path 2262" d="M24.276,49.865l5.249-27.229L36.415,2.3,25.26,0,14.435,40.679,14.106,1.64,0,1.312,3.281,24.6l1.64,26.245Z" transform="translate(111.42 7.743)" fill="#2f2e41"/>
        <path id="Path_2263" data-name="Path 2263" d="M.369,10.275V5.026L.041,2.074S-.615-.551,3.322.105,5.29,3.714,5.29,3.714L3.978,6.339,3.322,10.6Z" transform="translate(118.73 0.153)" fill="#2f2e41"/>
        <path id="Path_2264" data-name="Path 2264" d="M3.9,10.536l.946-5.163L5.7,2.529S6.817.065,2.826,0,.239,3.2.239,3.2l.818,2.818L.933,10.327Z" transform="translate(138.696 0.259)" fill="#2f2e41"/>
        <ellipse id="Ellipse_145" data-name="Ellipse 145" cx="4.921" cy="4.921" rx="4.921" ry="4.921" transform="translate(122.417 85.453)" fill="#ffb8b8"/>
        <path id="Path_2265" data-name="Path 2265" d="M2.523,9.842S3.179,4.593.554,3.281,5.475,0,5.475,0l4.593,5.249S7.772,8.2,8.428,10.17Z" transform="translate(121.89 78.2)" fill="#ffb8b8"/>
        <path id="Path_2266" data-name="Path 2266" d="M16.731,32.319a4.4,4.4,0,0,0-4.593-3.281c-3.937,0-2.952,1.64-2.952,1.64L3.937,28.054l.656-15.091L0,1.809A9.235,9.235,0,0,0,5.905.825C9.186-.815,15.419.5,15.419.5A10.651,10.651,0,0,0,19.684.169c1.64-.656,1.968,1.312,1.968,1.312l-1.968,9.514,2.953,10.5-.656,9.186Z" transform="translate(114.763 54.603)" fill="#e43a3a"/>
        <path id="Path_2267" data-name="Path 2267" d="M2.925,10.837,1.941,6.573S-1.668.339.956.011,4.237,6.573,4.237,6.573l1.64,4.265Z" transform="translate(110.421 42.819)" fill="#ffb8b8"/>
        <path id="Path_2268" data-name="Path 2268" d="M0,23.054l1.614,1.321,1.011-.337s1.64.328,3.281-2.3,8.858-11.482,7.874-12.466S4.921,2.058,4.921,2.058s.328-.984,0-1.312-2.3-.984-2.3-.656S.4,4.6.4,4.6,1.968,6.651,2.3,6.323a13.1,13.1,0,0,1,1.312-.984L6.233,7.963s-.328,1.312.656.984.328,1.968.328,1.968L1.312,16.492Z" transform="translate(133.167 60.378)" fill="#e43a3a"/>
        <path id="Path_2269" data-name="Path 2269" d="M8.9,29.525l-.883.433s-2.069-.433-2.725-1.745-2.3-14.763-2.3-14.763L1.678,4.593a.964.964,0,0,1-.984-.984C.694,2.624-.618,0,.366,0S5.287,0,5.943.656s1.968,3.281,1.64,3.609a1.62,1.62,0,0,1-.984.328l1.968,9.186Z" transform="translate(111.865 53.084)" fill="#e43a3a"/>
        <path id="Path_2270" data-name="Path 2270" d="M0,5.479V0H1.269L2.884,1.73,2.667,0H8.276L7.93,1.73,8.622,0h.894V5.479Z" transform="translate(122.781 89.817)" fill="#2f2e41"/>
        <path id="Path_2271" data-name="Path 2271" d="M0,2.984H.666A1.415,1.415,0,0,0,2.08,1.569V1.415A1.415,1.415,0,0,0,.666,0H0Z" transform="translate(131.871 88.642)" fill="#e43a3a"/>
        <path id="Path_2272" data-name="Path 2272" d="M0,3.969H.6a.6.6,0,0,0,.6-.6V.6A.6.6,0,0,0,.6,0H0Z" transform="translate(131.733 88.173)" fill="#e43a3a"/>
        <path id="Path_2273" data-name="Path 2273" d="M0,2.984H.666A1.415,1.415,0,0,0,2.08,1.569V1.415A1.415,1.415,0,0,0,.666,0H0Z" transform="translate(122.663 91.626) rotate(180)" fill="#e43a3a"/>
        <path id="Path_2274" data-name="Path 2274" d="M0,3.969H.6a.6.6,0,0,0,.6-.6V.6A.6.6,0,0,0,.6,0H0Z" transform="translate(122.786 92.142) rotate(180)" fill="#e43a3a"/>
        <path id="Path_2275" data-name="Path 2275" d="M11.182,0H10.74A5.426,5.426,0,0,1,5.591,5.654,5.426,5.426,0,0,1,.441,0H0A5.866,5.866,0,0,0,5.591,6.1,5.866,5.866,0,0,0,11.182,0Z" transform="translate(121.803 91.283)" fill="#e43a3a"/>
        <path id="Path_2276" data-name="Path 2276" d="M4.308,7.338l-.039-.025L3.595,8.376A.728.728,0,0,1,2.589,8.6L.338,7.173A.729.729,0,0,1,.113,6.168L3.812.338A.728.728,0,0,1,4.817.113L7.068,1.542a.728.728,0,0,1,.225,1.005L4.749,6.557l.039.025Z" transform="translate(107.81 43.096)" fill="#3f3d56"/>
        <path id="Path_2277" data-name="Path 2277" d="M3.265,8.091,6.958,2.27A.544.544,0,0,0,6.79,1.52L4.528.085a.544.544,0,0,0-.751.168L.085,6.073a.544.544,0,0,0,.168.751L.527,7A.259.259,0,0,1,.92,6.826l1.29.818a.259.259,0,0,1,.011.429l.294.186A.544.544,0,0,0,3.265,8.091Z" transform="translate(108.005 43.267)" fill="#e43a3a"/>
        <rect id="Rectangle_1537" data-name="Rectangle 1537" width="63.205" height="44.974" transform="translate(10.177 57.673)" fill="#e6e6e6"/>
        <path id="Path_2278" data-name="Path 2278" d="M.456,0H0V44.362H61.882V43.9H.456Z" transform="translate(5.186 62.119)" fill="#e43a3a"/>
        <path id="Path_2279" data-name="Path 2279" d="M.456,0H0V44.362H61.882V43.9H.456Z" transform="translate(0 66.711)" fill="#e43a3a"/>
        <ellipse id="Ellipse_146" data-name="Ellipse 146" cx="13.234" cy="13.331" rx="13.234" ry="13.331" transform="translate(27.57 67.301)" fill="#fff"/>
        <path id="Path_2280" data-name="Path 2280" d="M0,13.458V0L10.981,6.821Z" transform="translate(36.731 72.915)" fill="#e43a3a"/>
      </g>
    </g>
  </g>
</svg>
