<svg xmlns="http://www.w3.org/2000/svg" xmlns:xlink="http://www.w3.org/1999/xlink" width="172" height="146.338" viewBox="0 0 172 146.338">
  <defs>
    <linearGradient id="linear-gradient" x1="-0.232" y1="0.5" x2="0.769" y2="0.5" gradientUnits="objectBoundingBox">
      <stop offset="0" stop-color="gray" stop-opacity="0.251"/>
      <stop offset="0.54" stop-color="gray" stop-opacity="0.122"/>
      <stop offset="1" stop-color="gray" stop-opacity="0.102"/>
    </linearGradient>
    <linearGradient id="linear-gradient-2" x1="-3.46" y1="0.071" x2="-3.46" y2="1.082" xlink:href="#linear-gradient"/>
  </defs>
  <g id="Group_312" data-name="Group 312" transform="translate(-709 3095.823)">
    <g id="undraw_compose_music_ovo2" transform="translate(881 -2975.445) rotate(180)">
      <ellipse id="Ellipse_107" data-name="Ellipse 107" cx="3.392" cy="3.588" rx="3.392" ry="3.588" transform="translate(150.792 55.234)" fill="#e43a3a" opacity="0.1"/>
      <ellipse id="Ellipse_108" data-name="Ellipse 108" cx="5.684" cy="6.013" rx="5.684" ry="6.013" transform="translate(160.632 68.807)" fill="#e43a3a" opacity="0.1"/>
      <ellipse id="Ellipse_109" data-name="Ellipse 109" cx="3.392" cy="3.588" rx="3.392" ry="3.588" transform="translate(67.857 112.183)" fill="#e43a3a" opacity="0.1"/>
      <ellipse id="Ellipse_110" data-name="Ellipse 110" cx="3.392" cy="3.588" rx="3.392" ry="3.588" transform="translate(106.677 108.059)" fill="#e43a3a" opacity="0.1"/>
      <ellipse id="Ellipse_111" data-name="Ellipse 111" cx="5.684" cy="6.013" rx="5.684" ry="6.013" transform="translate(0 60.252)" fill="#e43a3a" opacity="0.1"/>
      <path id="Path_1863" data-name="Path 1863" d="M91.765,100.53c-10.125.4-19.769,4.122-28.977,8.2s-18.331,8.584-28.206,10.742c-6.356,1.388-13.625,1.586-18.747-2.3-4.936-3.742-6.529-10.183-7.38-16.165-.645-4.5-1.023-9.24.742-13.453,1.225-2.926,3.4-5.384,4.906-8.186,5.236-9.75,1.535-21.775-4.14-31.295-2.66-4.465-5.748-8.725-7.8-13.479S-.848,24.392.945,19.542c1.78-4.811,6.025-8.417,10.623-10.948C20.907,3.437,31.906,1.959,42.64,1.129,66.392-.722,90.273.079,114.089.882c8.813.3,17.666.6,26.336,2.156,4.815.863,9.786,2.231,13.281,5.534a13.887,13.887,0,0,1,2.564,16.548c-4.988,8.818-18.774,11.009-22.264,20.473-1.918,5.209.052,11.011,2.841,15.842,5.981,10.364,16.009,19.456,16.537,31.3a22.15,22.15,0,0,1-11.91,20.133c-7.813,4.036-18.646,3.528-24.406-3.152C111.135,102.814,100.7,100.175,91.765,100.53Z" transform="translate(3.38 0)" fill="#e43a3a" opacity="0.1"/>
      <path id="Path_1864" data-name="Path 1864" d="M0,42.3a1.013,1.013,0,0,1,.209-.574,3.136,3.136,0,0,1,.834-.75v-.9a26.937,26.937,0,0,0,3.025-3.056A9,9,0,0,1,5.78,34.817a1.518,1.518,0,0,1,.638-.358H6.46a.661.661,0,0,0-.245-.166.621.621,0,0,1,.236-.415.555.555,0,0,1,.447-.1,1.121,1.121,0,0,1,.339.179l.994.68A2.873,2.873,0,0,1,8.695,35c.185.2.314.445.5.647.314.345.759.551.977.965a4.863,4.863,0,0,1,.245.849c.055.186.135.362.188.547a2.1,2.1,0,0,1,.064.342c.035-.032.071-.063.108-.093.077.053.224-.086.19-.176s-.118-.154-.146-.247c-.063-.212.185-.37.289-.564a1.583,1.583,0,0,0,.061-.663c.011-.221.107-.486.136-.733.072-.577-.2-1.186,0-1.732a.522.522,0,0,1-.51-.42,1.677,1.677,0,0,1,.02-.738,1.031,1.031,0,0,1-.47-.927.239.239,0,0,0-.022-.166.22.22,0,0,0-.089-.055.938.938,0,0,1-.546-.869.456.456,0,0,0-.016-.184.427.427,0,0,0-.129-.139,1.107,1.107,0,0,1-.381-.846.625.625,0,0,1,.27-.554h.011A3.043,3.043,0,0,1,8.5,27.354,8.2,8.2,0,0,1,8.623,25.4h.056V25.35a.9.9,0,0,1,.089-.282,4.234,4.234,0,0,0,.337-1.453,1.356,1.356,0,0,1,.047-.367,1.874,1.874,0,0,1,.177-.322,3.574,3.574,0,0,0,.328-1.211,10.029,10.029,0,0,1,.4-1.587,4.711,4.711,0,0,0,.453-2.156,2.275,2.275,0,0,1-.063-.532,1.613,1.613,0,0,1,.2-.559,5.308,5.308,0,0,0,.22-.518.432.432,0,0,1,.1-.28c.019-.055.034-.111.05-.166s.027-.088.039-.133a1.8,1.8,0,0,0,.049-.226l-.009-.174v-.166a.422.422,0,0,0-.075-.148.6.6,0,0,0-.041-.048l-.038-.045a.3.3,0,0,1-.042-.065h0a.326.326,0,0,1-.013-.191.316.316,0,0,1,.016-.075c.039-.179.082-.358.124-.536.013-.055.027-.108.039-.166.034-.139.069-.28.105-.42v-.018l.024-.093.089-.342c.019-.068.038-.134.055-.2l.069-.247q.08-.289.165-.577c.56-1.954,1.16-3.9,1.53-5.9a.638.638,0,0,1,.224-.355,1.271,1.271,0,0,1,.39-.222c.036-.294.125-.652.136-.829a4.248,4.248,0,0,0-.14-1.723.127.127,0,0,1-.119-.04,5.045,5.045,0,0,1-.359-.4L12.5,1.743a1.269,1.269,0,0,1-.166-.214.786.786,0,0,1-.071-.612.819.819,0,0,1,.378-.474.618.618,0,0,0,.119-.071A.725.725,0,0,1,12.83.305a.272.272,0,0,1,.157-.032A5.325,5.325,0,0,1,14.221.5a.968.968,0,0,1,.51.254,1.031,1.031,0,0,1,.174.358l.147.431a5.133,5.133,0,0,1,.224.8,1.751,1.751,0,0,1-.039.829.168.168,0,0,1-.038-.068c.036.241.07.483.107.725.011.071.02.144.03.219.047-.645-.042-1.3-.014-1.942a2.394,2.394,0,0,1-.061-.363,2.246,2.246,0,0,1,.728-1.6A.73.73,0,0,1,16.237.01a.831.831,0,0,1,.257,0,3.119,3.119,0,0,1,.979.2,1.234,1.234,0,0,1,.7.707,1.741,1.741,0,0,1,.071.511,2.066,2.066,0,0,1-.045.539,4.23,4.23,0,0,1-.257.629,6.254,6.254,0,0,0-.292.926l-.136.526c-.038.149-.077.3-.125.445a.76.76,0,0,1-.174.35c-.057.046-.094.05-.119.023v.056q.033.306.036.615a2.661,2.661,0,0,1-.448.9,1.81,1.81,0,0,0-.179.474c-.009.036-.016.071-.022.109a.359.359,0,0,0,.089.061l.279-.166c-.246,1.957-.116,4.009-.834,5.831a6.064,6.064,0,0,0-.85,2.473.717.717,0,0,0-.226.575.7.7,0,0,0,.3.536c.121.07.27.1.353.221a.618.618,0,0,1,.08.214,35.335,35.335,0,0,0,1.549,4.918c.14.35.284.7.43,1.043l.486,1.169.593,1.423a2.073,2.073,0,0,1,.213,1.51,1.328,1.328,0,0,0-.19.576,3.8,3.8,0,0,0,.116.38,1,1,0,0,1-.03.413c-.039.179-.083.358-.129.536a2.691,2.691,0,0,0,.378-.076c.075.134-.045.29-.119.426a1.51,1.51,0,0,0-.137.592l-.157,1.674a3.14,3.14,0,0,0-.013.7c.031.246.121.479.166.725a11.772,11.772,0,0,1,.028,1.433,6.766,6.766,0,0,0,.207,1.247c.014.061.027.121.041.182a.9.9,0,0,1,.227-.041h.194a.6.6,0,0,1,.086.023h.019a.93.93,0,0,1,.093.038c-.038.085-.072.166-.105.255-.014.035-.027.07-.039.1s-.036.1-.052.148-.031.091-.046.136-.024.076-.034.114-.03.1-.044.166-.028.109-.042.166l.024.051a1.375,1.375,0,0,1,.259-.187c.314-.572.6-1.161.859-1.755a.577.577,0,0,1,.08.214,1.02,1.02,0,0,1,.111-.151,1.671,1.671,0,0,1,.365-.284.91.91,0,0,1,.433-.166.787.787,0,0,1,.554.254,3.967,3.967,0,0,1,.9,1.659,13.034,13.034,0,0,1,.674,2.443,21.876,21.876,0,0,0,.314,2.71c-.218.458-.356.964-.6,1.407a6.414,6.414,0,0,0-.414.821,2.991,2.991,0,0,0-.074,1.9.236.236,0,0,1-.287-.017.637.637,0,0,1-.173-.265,2.475,2.475,0,0,1-.171-1.115.468.468,0,0,0-.03-.272.315.315,0,0,0-.279-.124,2.289,2.289,0,0,0-.646.124,5.688,5.688,0,0,1-1.8.186,1.471,1.471,0,0,1-.157.166l-.067.058-.069.056-.034.03a.807.807,0,0,0-.066.061.466.466,0,0,0-.157.29.382.382,0,0,0,0,.043.327.327,0,0,0,0,.04.585.585,0,0,0,.036.116.8.8,0,0,0,.034.075l.017.038c0,.012.011.025.017.037a1.115,1.115,0,0,1,.05.139,1.066,1.066,0,0,1,.033.144,1.16,1.16,0,0,1,.014.148v.224a1.593,1.593,0,0,1-.058.3,1.706,1.706,0,0,1-.075.212,2.386,2.386,0,0,1-.133.262,4,4,0,0,1-.335.483l-.093.114-.094.113a3.918,3.918,0,0,0-.273.353,1.4,1.4,0,0,0-.157.3c-.013.035-.024.07-.033.106a1.123,1.123,0,0,0-.028.206v.068a2.717,2.717,0,0,0,.012.277c.013.129.03.26.047.393.011.088.023.176.034.264a.945.945,0,0,0,.016.131c.009.088.019.176.025.264a2.671,2.671,0,0,1-.041.768,1.516,1.516,0,0,1-.074.246,1.573,1.573,0,0,1-.157.3,2.059,2.059,0,0,1-.872.718,3.859,3.859,0,0,1-.8.27c-.11.025-.218.046-.326.065a4.432,4.432,0,0,1-4.391-1.659,6.58,6.58,0,0,1-1.187-2.46,3.687,3.687,0,0,1,.375-2.682c.2-.332.47-.61.648-.952.147-.279.235-.592.394-.864a1.96,1.96,0,0,1,.87-.775l-.069-.066a2,2,0,0,1-.488-.01c-.166-.03-.328-.1-.5-.119-.207-.028-.419.015-.627-.013a1.957,1.957,0,0,1-1-.605A1.86,1.86,0,0,1,9,40.669v-.013l-.23-.332a1.324,1.324,0,0,1-.144-.241,4.268,4.268,0,0,1-.091-.743,1.642,1.642,0,0,0-.182-.443,10.014,10.014,0,0,0-.784-1.237,2.041,2.041,0,0,0-.488-.511A.843.843,0,0,0,6.569,37a3.25,3.25,0,0,0-.743.526,5.033,5.033,0,0,0-.657.864c-.373.569.784-1.133.411-.562l-3.346,5.9a5.077,5.077,0,0,0-.132.839c0,.108-.042.251-.146.254a.174.174,0,0,1-.118-.06.743.743,0,0,1-.218-.614.767.767,0,0,1-.513-.1.313.313,0,0,1-.121-.206.324.324,0,0,1,.056-.235V43.56a.24.24,0,0,1-.118-.249.756.756,0,0,1-.55-.028c-.165-.1-.227-.385-.067-.5A.51.51,0,0,1,0,42.3Zm20.962-.846a2.476,2.476,0,0,1,.293-.08,4.507,4.507,0,0,0,.909-.332.5.5,0,0,0,.237-.187.587.587,0,0,0-.028-.471l-.414-1.183c-.066-.186-.13-.372-.212-.549-.031-.071-.067-.143-.1-.212q-.019.06-.038.114a10.158,10.158,0,0,0-.3,1.1c-.069.322-.127.647-.176.972a4.982,4.982,0,0,1-.174.826Zm-.433.927.031-.023a.353.353,0,0,0,.108-.08.186.186,0,0,0,0-.166Zm-.748,1.14.5-.076a.629.629,0,0,0,.334-.121A.246.246,0,0,0,20.656,43a.747.747,0,0,0-.11-.078.342.342,0,0,1-.118-.343,3.759,3.759,0,0,1-.284.466,2.247,2.247,0,0,1-.331.358C19.8,43.441,19.794,43.484,19.781,43.525ZM15.019,5.816a1.669,1.669,0,0,1,.183,0,1.973,1.973,0,0,1-.03-.471Z" transform="translate(128.524 12.446)" fill="url(#linear-gradient)"/>
      <path id="Path_1865" data-name="Path 1865" d="M5.683,16.453A2.6,2.6,0,0,0,7.83,15.1a4.722,4.722,0,0,0,0-2.064,1.654,1.654,0,0,1,.019-.549,1.942,1.942,0,0,1,.455-.755,4.026,4.026,0,0,0,.655-.97A1.488,1.488,0,0,0,9,9.6.875.875,0,0,1,8.895,9.3c-.011-.237.223-.386.4-.537.646-.566.618-1.6.627-2.488A13.17,13.17,0,0,1,11.04,1.025a1.452,1.452,0,0,0-1.7.234A6.278,6.278,0,0,1,9.729.084C9.182-.2,8.523.265,8.25.837a13.461,13.461,0,0,0-.5,1.848c-.188.607-.547,1.143-.7,1.755a1.751,1.751,0,0,1-.2.587,1.433,1.433,0,0,1-.345.31A3.543,3.543,0,0,0,5.288,7.083,6.13,6.13,0,0,0,3.25,6.834a2.217,2.217,0,0,0-1.737,1.01c-.157.272-.246.586-.394.864-.18.342-.447.622-.649.95A3.685,3.685,0,0,0,.1,12.338a6.53,6.53,0,0,0,1.187,2.457A4.457,4.457,0,0,0,5.683,16.453Z" transform="translate(138.518 47.674)" fill="#3a3768"/>
      <path id="Path_1866" data-name="Path 1866" d="M5.683,16.453A2.6,2.6,0,0,0,7.83,15.1a4.722,4.722,0,0,0,0-2.064,1.654,1.654,0,0,1,.019-.549,1.942,1.942,0,0,1,.455-.755,4.026,4.026,0,0,0,.655-.97A1.488,1.488,0,0,0,9,9.6.875.875,0,0,1,8.895,9.3c-.011-.237.223-.386.4-.537.646-.566.618-1.6.627-2.488A13.17,13.17,0,0,1,11.04,1.025a1.452,1.452,0,0,0-1.7.234A6.278,6.278,0,0,1,9.729.084C9.182-.2,8.523.265,8.25.837a13.461,13.461,0,0,0-.5,1.848c-.188.607-.547,1.143-.7,1.755a1.751,1.751,0,0,1-.2.587,1.433,1.433,0,0,1-.345.31A3.543,3.543,0,0,0,5.288,7.083,6.13,6.13,0,0,0,3.25,6.834a2.217,2.217,0,0,0-1.737,1.01c-.157.272-.246.586-.394.864-.18.342-.447.622-.649.95A3.685,3.685,0,0,0,.1,12.338a6.53,6.53,0,0,0,1.187,2.457A4.457,4.457,0,0,0,5.683,16.453Z" transform="translate(138.518 47.674)" fill="#3f3d56"/>
      <path id="Path_1867" data-name="Path 1867" d="M2.576,5.781c.049-.332.107-.65.177-.974a9.715,9.715,0,0,1,.3-1.1,1.108,1.108,0,0,0,.093-.5.961.961,0,0,0-.115-.3,5.783,5.783,0,0,1-.969-2.3A1.3,1.3,0,0,0,1.952,0Q1.5,1.035.947,2.02A6.4,6.4,0,0,0,.03,4.19,4.347,4.347,0,0,0,.042,5.3,2.522,2.522,0,0,0,.422,6.478c.259.358.972.9,1.433.79C2.4,7.128,2.507,6.244,2.576,5.781Z" transform="translate(147.054 46.972)" fill="#f86d70"/>
      <path id="Path_1868" data-name="Path 1868" d="M7.273,2.214a4.61,4.61,0,0,0-1.447.856,4.948,4.948,0,0,0-.657.863L3.96,5.78a3.421,3.421,0,0,0-.643,1.43,4.839,4.839,0,0,0-1.209,2.9c0,.11-.041.251-.144.254a.178.178,0,0,1-.119-.06.745.745,0,0,1-.216-.614A.767.767,0,0,1,1.115,9.6c-.144-.109-.182-.38-.027-.471a.235.235,0,0,1-.157-.264.744.744,0,0,1-.55-.028c-.157-.1-.227-.383-.067-.5A.5.5,0,0,1,0,7.852,1.008,1.008,0,0,1,.209,7.28c.47-.663,1.286-.926,1.824-1.519A4.393,4.393,0,0,0,2.5,5.1l1.56-2.511A8.936,8.936,0,0,1,5.775.381,1.523,1.523,0,0,1,6.412.023a.678.678,0,0,1,.67.2,1.2,1.2,0,0,1,.2.707C7.315,1.348,7.246,1.787,7.273,2.214Z" transform="translate(128.579 46.56)" fill="#a1616a"/>
      <path id="Path_1869" data-name="Path 1869" d="M.269,1.471A1.413,1.413,0,0,1,.1,1.257.786.786,0,0,1,.032.645.819.819,0,0,1,.41.172.73.73,0,0,0,.529.1.713.713,0,0,1,.6.033.271.271,0,0,1,.76,0,5.426,5.426,0,0,1,1.994.224.968.968,0,0,1,2.5.477a1.1,1.1,0,0,1,.174.357l.146.431a5.289,5.289,0,0,1,.226.8,1.766,1.766,0,0,1-.041.829.281.281,0,0,1-.055-.166,1.9,1.9,0,0,0-.314-.8.813.813,0,0,0-.122-.166A.777.777,0,0,0,2.151,1.6a4.272,4.272,0,0,0-.784-.106A.231.231,0,0,0,1.26,1.5a.2.2,0,0,0-.089.118.526.526,0,0,0,0,.332c.071.209.265.347.359.547.069.148-.027.31-.169.186A4.506,4.506,0,0,1,1,2.282Z" transform="translate(140.727 12.431)" fill="#3f3d56"/>
      <path id="Path_1870" data-name="Path 1870" d="M.9,3.49A3.458,3.458,0,0,0,.608,1.463C.48,1.253.306,1.077.158.879A.7.7,0,0,1,0,.528.528.528,0,0,1,.444.009a1.39,1.39,0,0,1,.71.108,1.673,1.673,0,0,1,.6.3,1.9,1.9,0,0,1,.458,1.174l.146,1a3.32,3.32,0,0,1,.053.725,3.384,3.384,0,0,1-.183.781l-.241.746a.356.356,0,0,1-.107.186A.3.3,0,0,1,1.7,5.06c-.231-.012-.812-.1-.924-.358C.674,4.469.881,3.752.9,3.49Z" transform="translate(141.451 13.398)" fill="#ee8e9e"/>
      <path id="Path_1871" data-name="Path 1871" d="M.9,3.49A3.458,3.458,0,0,0,.608,1.463C.48,1.253.306,1.077.158.879A.7.7,0,0,1,0,.528.528.528,0,0,1,.444.009a1.39,1.39,0,0,1,.71.108,1.673,1.673,0,0,1,.6.3,1.9,1.9,0,0,1,.458,1.174l.146,1a3.32,3.32,0,0,1,.053.725,3.384,3.384,0,0,1-.183.781l-.241.746a.356.356,0,0,1-.107.186A.3.3,0,0,1,1.7,5.06c-.231-.012-.812-.1-.924-.358C.674,4.469.881,3.752.9,3.49Z" transform="translate(141.451 13.398)" opacity="0.05"/>
      <path id="Path_1872" data-name="Path 1872" d="M0,19.832a.069.069,0,0,1,0-.018.864.864,0,0,1,.088-.282A4.271,4.271,0,0,0,.427,18.08a1.3,1.3,0,0,1,.046-.367,1.986,1.986,0,0,1,.177-.322,3.564,3.564,0,0,0,.328-1.209,10,10,0,0,1,.4-1.586,4.7,4.7,0,0,0,.453-2.156,2.275,2.275,0,0,1-.063-.531,1.587,1.587,0,0,1,.2-.559,5.339,5.339,0,0,0,.221-.517c.064-.176.133-.383.187-.577a.825.825,0,0,0-.041-.712.8.8,0,0,1-.121-.156.439.439,0,0,1,0-.269q.127-.567.273-1.133c.075-.3.157-.589.237-.883.605-2.146,1.289-4.271,1.7-6.469A.954.954,0,0,1,5.153.023.926.926,0,0,1,6,.263a.542.542,0,0,1,.06.061A1.969,1.969,0,0,1,6.4,1.715C6.29,3.977,5.213,6.047,4.7,8.247a13.262,13.262,0,0,0-.332,2.424,26.749,26.749,0,0,0,.561,8.241,2.226,2.226,0,0,1,.058,1.659,1.538,1.538,0,0,1-.806.624,4.93,4.93,0,0,1-4.028-.109,1.38,1.38,0,0,1,0-.166,1.773,1.773,0,0,0-.082-.753A.97.97,0,0,1,0,19.832Z" transform="translate(137.242 17.65)" fill="#3f3d56"/>
      <path id="Path_1873" data-name="Path 1873" d="M2.256,4.039l.136-.526a6.122,6.122,0,0,1,.29-.926,4.149,4.149,0,0,0,.259-.627,2.143,2.143,0,0,0,.044-.539A1.736,1.736,0,0,0,2.915.912a1.234,1.234,0,0,0-.7-.707A3.164,3.164,0,0,0,1.234.011a.74.74,0,0,0-.257,0A.7.7,0,0,0,.728.149,2.231,2.231,0,0,0,0,1.743a2.061,2.061,0,0,0,.077.406c.034.05.378-.154.23-.332-.216-.254.419-.123.742-.1a2.822,2.822,0,0,1,.42.073l.522.118c.171.04.368.1.428.275s-.072.38-.174.547a3.738,3.738,0,0,0-.408,1.521c-.013.1-.135.776.118.567a.76.76,0,0,0,.176-.35C2.18,4.336,2.217,4.188,2.256,4.039Z" transform="translate(143.764 12.146)" fill="#3f3d56"/>
      <path id="Path_1874" data-name="Path 1874" d="M.14,9.544a.8.8,0,0,1,.041.71c-.025.09-.05.177-.078.265l2.053.733c0-.194.016-.388.024-.582a13.3,13.3,0,0,1,.332-2.425c.513-2.2,1.59-4.268,1.7-6.529A1.887,1.887,0,0,0,3.814.261a.933.933,0,0,0-.85-.239c-.3.068-.681.3-.739.612-.406,2.2-1.1,4.323-1.7,6.469q-.282,1-.51,2.017a.445.445,0,0,0,0,.267A.8.8,0,0,0,.14,9.544Z" transform="translate(139.373 17.648)" opacity="0.05"/>
      <path id="Path_1875" data-name="Path 1875" d="M1.518,5.128a2.678,2.678,0,0,0,.447-.9,5.422,5.422,0,0,0-.036-.615,2.031,2.031,0,0,1,.086-.5q.3-1.145.69-2.259A.649.649,0,0,0,2.76.553.527.527,0,0,0,2.42.195,3.41,3.41,0,0,0,.852.013.784.784,0,0,0,.41.122.838.838,0,0,0,.161.774c-.036.7.077,1.413,0,2.115-.025.256-.077.508-.115.76A2.354,2.354,0,0,0,.077,4.71a2.463,2.463,0,0,0,.375.663,2.024,2.024,0,0,0,.522.551c.063.04.24.166.3.085.033-.038.019-.141.024-.189A1.984,1.984,0,0,1,1.337,5.6,1.862,1.862,0,0,1,1.518,5.128Z" transform="translate(143.668 13.44)" fill="#ee8e9e"/>
      <path id="Path_1876" data-name="Path 1876" d="M4.112,18.623a.632.632,0,0,0,.039-.5c-.069-.3-.182-.587-.274-.881a12.865,12.865,0,0,1-.354-1.6,4.942,4.942,0,0,1-.193-1.526,11.325,11.325,0,0,1-1.1-3.618c-.042-.323.638-.743.627-1.07-.025-.65-.516-.7-.157-1.221.017-.027-.137-.607-.116-.632.147-.187.334-.332.492-.513a3.942,3.942,0,0,0,.519-.8C4.538,4.472,5.885,2.445,5.468.455A.361.361,0,0,1,5.647.1a.883.883,0,0,1,.4-.1h.066a1.968,1.968,0,0,1,.334,1.39c-.1,2.263-1.182,4.333-1.7,6.532a13.274,13.274,0,0,0-.332,2.424,26.745,26.745,0,0,0,.561,8.241,2.226,2.226,0,0,1,.058,1.659,1.537,1.537,0,0,1-.806.624A4.93,4.93,0,0,1,.2,20.76a1.379,1.379,0,0,1,0-.166,1.773,1.773,0,0,0-.082-.753.966.966,0,0,1-.08-.332S0,19.949,0,19.942c.839-.128,1.714-.707,2.553-.829a5.55,5.55,0,0,0,1.28-.3A.553.553,0,0,0,4.112,18.623Z" transform="translate(137.19 17.978)" opacity="0.05"/>
      <path id="Path_1877" data-name="Path 1877" d="M10.066,23.476c.113-.38.213-.763.3-1.15a.992.992,0,0,0,.03-.411,3.772,3.772,0,0,1-.116-.38,1.319,1.319,0,0,1,.19-.574,2.079,2.079,0,0,0-.212-1.509L9.662,18.03l-.486-1.161c-.144-.347-.289-.693-.428-1.043A35.312,35.312,0,0,1,7.2,10.914a.623.623,0,0,0-.08-.214c-.083-.116-.232-.149-.353-.221a.7.7,0,0,1-.3-.536.715.715,0,0,1,.226-.574A6.04,6.04,0,0,1,7.542,6.9c.717-1.825.586-3.868.834-5.822L8.1,1.243c-.268-.129-.259-.531-.4-.8A1.175,1.175,0,0,0,6.51.007a.883.883,0,0,0-.4.1.359.359,0,0,0-.177.358C6.351,2.452,5,4.484,4.064,6.268a3.886,3.886,0,0,1-.519.8c-.157.177-.343.332-.492.514A2.913,2.913,0,0,0,2.615,9.53a11.394,11.394,0,0,0,1.171,4.595,4.972,4.972,0,0,0,.194,1.526,12.58,12.58,0,0,0,.353,1.6c.093.294.206.581.274.881a.632.632,0,0,1-.038.5.55.55,0,0,1-.265.181,5.623,5.623,0,0,1-1.28.3l-2.882.438A8.186,8.186,0,0,0,.021,21.5,2.96,2.96,0,0,0,2.06,24.017a.408.408,0,0,0,.375-.025,14.243,14.243,0,0,0,7.632-.516Z" transform="translate(136.978 17.962)" fill="#3f3d56"/>
      <path id="Path_1878" data-name="Path 1878" d="M4.124,4.513a1.569,1.569,0,0,1,.125-.873,1.34,1.34,0,0,1,.328-.383,2.38,2.38,0,0,1,.95-.5A.986.986,0,0,0,6.1,2.5c.2-.259.067-.649-.105-.931A2.284,2.284,0,0,0,4.745.476C4.32.353,3.865.428,3.431.348,3.117.29,2.819.152,2.509.074A2.621,2.621,0,0,0,0,.813,3.714,3.714,0,0,1,1.181,2.15,2,2,0,0,1,1.27,3.427,2.974,2.974,0,0,0,.988,4.674a1.269,1.269,0,0,0,.864.861,5.282,5.282,0,0,0,1.087.232c.2.03,1.493.332,1.568.182.046-.085-.223-.582-.256-.692A2.8,2.8,0,0,1,4.124,4.513Z" transform="translate(140.302 53.412)" fill="#a1616a"/>
      <path id="Path_1879" data-name="Path 1879" d="M4.124,4.513a1.569,1.569,0,0,1,.125-.873,1.34,1.34,0,0,1,.328-.383,2.38,2.38,0,0,1,.95-.5A.986.986,0,0,0,6.1,2.5c.2-.259.067-.649-.105-.931A2.284,2.284,0,0,0,4.745.476C4.32.353,3.865.428,3.431.348,3.117.29,2.819.152,2.509.074A2.621,2.621,0,0,0,0,.813,3.714,3.714,0,0,1,1.181,2.15,2,2,0,0,1,1.27,3.427,2.974,2.974,0,0,0,.988,4.674a1.269,1.269,0,0,0,.864.861,5.282,5.282,0,0,0,1.087.232c.2.03,1.493.332,1.568.182.046-.085-.223-.582-.256-.692A2.8,2.8,0,0,1,4.124,4.513Z" transform="translate(140.302 53.412)" opacity="0.05"/>
      <ellipse id="Ellipse_112" data-name="Ellipse 112" cx="2.617" cy="2.769" rx="2.617" ry="2.769" transform="translate(140.186 56.93)" fill="#a1616a"/>
      <path id="Path_1880" data-name="Path 1880" d="M6.69,14.386l-1.773-.315A6.292,6.292,0,0,0,3.59,13.93a3.585,3.585,0,0,1-.731,0c-.168-.03-.328-.1-.5-.119-.207-.028-.417.013-.627-.015a1.953,1.953,0,0,1-1-.6A1.842,1.842,0,0,1,0,12.031a.349.349,0,0,1,.02-.166.476.476,0,0,1,.132-.146A4.441,4.441,0,0,0,.9,10.64a4.085,4.085,0,0,1,.881-1.005c.078.053.226-.086.191-.176s-.118-.154-.146-.247c-.063-.212.185-.368.287-.564a1.6,1.6,0,0,0,.063-.664c.011-.222.105-.486.137-.735.071-.576-.2-1.183,0-1.728A.519.519,0,0,1,1.8,5.1a1.674,1.674,0,0,1,.02-.736,1.029,1.029,0,0,1-.47-.926A.175.175,0,0,0,1.341,3.3a.158.158,0,0,0-.1-.083.936.936,0,0,1-.544-.868.451.451,0,0,0-.016-.184.4.4,0,0,0-.129-.139,1.107,1.107,0,0,1-.381-.846A.632.632,0,0,1,.437.628,4.678,4.678,0,0,1,1.629.253,10.177,10.177,0,0,1,2.783.037,9.785,9.785,0,0,1,3.863,0l2.374.01c.666,0,1.334,0,2,.053A5.368,5.368,0,0,0,10.1.019c.075.134-.045.29-.119.426a1.5,1.5,0,0,0-.136.591L9.692,2.71a3.11,3.11,0,0,0-.012.693c.033.247.121.481.166.725A11.765,11.765,0,0,1,9.873,5.56a6.717,6.717,0,0,0,.207,1.246l.47,2.049a8.274,8.274,0,0,0,.232,1.027q.541,1.476,1.137,2.926a.317.317,0,0,1-.02.259l-.392.745a4.829,4.829,0,0,1-.359.605,2.192,2.192,0,0,1-2.865.619c-.183-.1-.353-.231-.54-.332A2.116,2.116,0,0,0,6.69,14.386Z" transform="translate(137.494 40.736)" fill="#f86d70"/>
      <path id="Path_1881" data-name="Path 1881" d="M3.158,7.414,2.54,6.542A1.122,1.122,0,0,1,2.4,6.3a4.109,4.109,0,0,1-.093-.74,1.59,1.59,0,0,0-.18-.443,10.279,10.279,0,0,0-.784-1.237A2.16,2.16,0,0,0,.851,3.37a.773.773,0,0,0-.659-.123A.421.421,0,0,0,.409,3.04,2.666,2.666,0,0,0,.566,1.421,1.724,1.724,0,0,0,.394.89.766.766,0,0,0,0,.53.621.621,0,0,1,.237.115a.555.555,0,0,1,.447-.1A1.121,1.121,0,0,1,1.022.19l.993.68a2.656,2.656,0,0,1,.463.367c.185.2.314.443.5.645.314.343.759.549.977.964a4.731,4.731,0,0,1,.243.849c.055.184.136.36.188.546a2.564,2.564,0,0,1-.2,1.748A7.446,7.446,0,0,1,3.158,7.414Z" transform="translate(134.799 45.884)" fill="#f86d70"/>
      <path id="Path_1882" data-name="Path 1882" d="M.283,13.6a3.549,3.549,0,0,0,.92,1.014,3.055,3.055,0,0,0,1.661.743,1.679,1.679,0,0,0,.746-.129c.012.783.2,1.3.657,1.224A2.6,2.6,0,0,0,6.414,15.1a4.722,4.722,0,0,0,0-2.064,1.651,1.651,0,0,1,.019-.549,1.942,1.942,0,0,1,.455-.755,4.027,4.027,0,0,0,.655-.97A1.488,1.488,0,0,0,7.587,9.6.874.874,0,0,1,7.479,9.3c-.011-.237.223-.387.4-.537.646-.566.618-1.6.627-2.488A13.172,13.172,0,0,1,9.624,1.025a1.452,1.452,0,0,0-1.7.234A6.28,6.28,0,0,1,8.313.084C7.766-.2,7.107.265,6.835.837a13.473,13.473,0,0,0-.5,1.848c-.188.607-.547,1.143-.7,1.755a1.752,1.752,0,0,1-.2.587,1.437,1.437,0,0,1-.345.31c-.563.428.266,3.669.047,4.364-.328-.075-.93,1.6-1.273,3.3a1.539,1.539,0,0,0-.745-.08.849.849,0,0,1-.267.02.687.687,0,0,1-.232-.1,5.617,5.617,0,0,0-.792-.431,4.315,4.315,0,0,0-1.8-.166A1.975,1.975,0,0,0,.283,13.6Z" transform="translate(139.934 47.674)" fill="#3a3768"/>
      <path id="Path_1883" data-name="Path 1883" d="M.283,13.6a3.549,3.549,0,0,0,.92,1.014,3.055,3.055,0,0,0,1.661.743,1.679,1.679,0,0,0,.746-.129c.012.783.2,1.3.657,1.224A2.6,2.6,0,0,0,6.414,15.1a4.722,4.722,0,0,0,0-2.064,1.651,1.651,0,0,1,.019-.549,1.942,1.942,0,0,1,.455-.755,4.027,4.027,0,0,0,.655-.97A1.488,1.488,0,0,0,7.587,9.6.874.874,0,0,1,7.479,9.3c-.011-.237.223-.387.4-.537.646-.566.618-1.6.627-2.488A13.172,13.172,0,0,1,9.624,1.025a1.452,1.452,0,0,0-1.7.234A6.28,6.28,0,0,1,8.313.084C7.766-.2,7.107.265,6.835.837a13.473,13.473,0,0,0-.5,1.848c-.188.607-.547,1.143-.7,1.755a1.752,1.752,0,0,1-.2.587,1.437,1.437,0,0,1-.345.31c-.563.428.266,3.669.047,4.364-.328-.075-.93,1.6-1.273,3.3a1.539,1.539,0,0,0-.745-.08.849.849,0,0,1-.267.02.687.687,0,0,1-.232-.1,5.617,5.617,0,0,0-.792-.431,4.315,4.315,0,0,0-1.8-.166A1.975,1.975,0,0,0,.283,13.6Z" transform="translate(139.934 47.674)" fill="#3f3d56"/>
      <g id="Group_239" data-name="Group 239" transform="translate(140.436 47.68)" opacity="0.1">
        <path id="Path_1884" data-name="Path 1884" d="M5.275.175A13.2,13.2,0,0,0,4.152,5.423a3.226,3.226,0,0,1-.627,2.488c-.173.151-.406.3-.4.537a.875.875,0,0,0,.11.305,1.5,1.5,0,0,1-.044,1.161,4.026,4.026,0,0,1-.655.97,1.946,1.946,0,0,0-.456.755,1.745,1.745,0,0,0-.019.549,4.476,4.476,0,0,1,0,2.064A2.522,2.522,0,0,1,0,15.588a.446.446,0,0,0,.226.015,2.6,2.6,0,0,0,2.147-1.35,4.722,4.722,0,0,0,0-2.064,1.656,1.656,0,0,1,.019-.549,1.943,1.943,0,0,1,.455-.755,4.025,4.025,0,0,0,.655-.97,1.488,1.488,0,0,0,.044-1.161.876.876,0,0,1-.108-.305c-.011-.237.223-.386.4-.537.646-.566.618-1.6.627-2.488A13.167,13.167,0,0,1,5.582.175,1.4,1.4,0,0,0,4.751.009,1.364,1.364,0,0,1,5.275.175Z" transform="translate(3.527 0.85)"/>
        <path id="Path_1885" data-name="Path 1885" d="M.386.084A6.162,6.162,0,0,0,0,1.258,1.427,1.427,0,0,1,.372,1,6.385,6.385,0,0,1,.685.084.781.781,0,0,0,.179.016.77.77,0,0,1,.386.084Z" transform="translate(7.106)"/>
        <path id="Path_1886" data-name="Path 1886" d="M.5,0A1.725,1.725,0,0,1,0,.124H.06A1.662,1.662,0,0,0,.5.09C.5.063.5.033.5,0Z" transform="translate(2.302 15.223)"/>
        <path id="Path_1887" data-name="Path 1887" d="M1.019.189A5.636,5.636,0,0,1,1.813.62a.673.673,0,0,0,.232.1A.811.811,0,0,0,2.289.705.96.96,0,0,1,2.12.62,5.614,5.614,0,0,0,1.328.189,3.389,3.389,0,0,0,0,.007,2.991,2.991,0,0,1,1.019.189Z" transform="translate(0 12.214)"/>
        <path id="Path_1888" data-name="Path 1888" d="M.375.094.389.02A1.452,1.452,0,0,0,0,.008,1.644,1.644,0,0,1,.375.094Z" transform="translate(2.681 12.907)"/>
      </g>
      <path id="Path_1889" data-name="Path 1889" d="M1.759,1.259A1.049,1.049,0,0,1,2.016.45,1.718,1.718,0,0,1,2.38.166.955.955,0,0,1,2.813,0a.8.8,0,0,1,.554.255A3.957,3.957,0,0,1,4.26,1.906a12.929,12.929,0,0,1,.676,2.44A21.872,21.872,0,0,0,5.25,7.055c-.216.458-.354.962-.6,1.4a6.746,6.746,0,0,0-.414.821,2.991,2.991,0,0,0-.074,1.894.231.231,0,0,1-.285-.015.638.638,0,0,1-.173-.265A2.473,2.473,0,0,1,3.533,9.78a.466.466,0,0,0-.03-.272.315.315,0,0,0-.279-.124,2.355,2.355,0,0,0-.646.123,5.674,5.674,0,0,1-1.99.174.9.9,0,0,1-.389-.1A.385.385,0,0,1,0,9.238l1.59-.247a.634.634,0,0,0,.336-.121.25.25,0,0,0,.046-.332.627.627,0,0,0-.11-.076.359.359,0,0,1,.013-.554.336.336,0,0,0,.108-.08c.066-.093-.02-.214-.049-.332a.42.42,0,0,1,.191-.42,1.348,1.348,0,0,1,.444-.158,4.5,4.5,0,0,0,.909-.332A.5.5,0,0,0,3.715,6.4a.592.592,0,0,0-.028-.471L3.273,4.747c-.066-.186-.13-.37-.212-.549-.105-.231-.235-.448-.343-.678a6.948,6.948,0,0,1-.259-.663C2.247,2.258,1.832,1.9,1.759,1.259Z" transform="translate(147.181 46.577)" fill="#a1616a"/>
      <path id="Path_1890" data-name="Path 1890" d="M19.6,82.94V27.3a16.548,16.548,0,0,1-5.43.886A13.86,13.86,0,0,1,0,14.062,13.806,13.806,0,0,1,14.171,0c7.82,0,14.21,6.091,14.21,14.929V53.566H69.62V27.3a16.54,16.54,0,0,1-5.43.886A13.86,13.86,0,0,1,50.02,14.062,13.806,13.806,0,0,1,64.19,0C72.01,0,78.4,6.091,78.4,14.929V82.94ZM69.622,62.2H28.382V73.651h41.24Z" transform="translate(60.986 10.556)" fill="#e43a3a"/>
      <path id="Path_1891" data-name="Path 1891" d="M20.024,63.7V26.361A12.81,12.81,0,0,1,3.9,24.106,14.743,14.743,0,0,1,1.8,7.05,13.058,13.058,0,0,1,16.827.488,14.021,14.021,0,0,1,26.7,14.152v35.4H40.1V63.7Z" transform="translate(19.088 35.934)" fill="#e43a3a"/>
      <path id="Path_1892" data-name="Path 1892" d="M10.705,2.165a8.22,8.22,0,0,1-2.454.919,10.7,10.7,0,0,1,1.836.436c1.595.534,2.4,1.251,1.8,1.6S9.5,5.323,7.9,4.789a5.986,5.986,0,0,1-1.529-.718A3.131,3.131,0,0,1,5.06,5.276,6.336,6.336,0,0,1,.808,6.2c-.931-.312-.538-1.231.88-2.055a8.206,8.206,0,0,1,2.2-.864A12.282,12.282,0,0,1,2.37,3C.634,2.559-.37,1.894.127,1.508s2.31-.332,4.046.106a7.292,7.292,0,0,1,1.819.68A3,3,0,0,1,7.328,1.032,6.337,6.337,0,0,1,11.58.1C12.512.416,12.117,1.342,10.705,2.165Z" transform="translate(24.827 9.958)" fill="#e43a3a"/>
      <path id="Path_1893" data-name="Path 1893" d="M5.194,1.049A4.006,4.006,0,0,1,4,1.495a5.351,5.351,0,0,1,.891.211c.775.26,1.165.607.872.778a3.154,3.154,0,0,1-1.933-.166,3,3,0,0,1-.742-.348,1.526,1.526,0,0,1-.637.585A3.1,3.1,0,0,1,.39,3c-.452-.151-.26-.6.426-1a3.971,3.971,0,0,1,1.069-.418,6.122,6.122,0,0,1-.735-.139C.308,1.239-.18.916.062.73A3.22,3.22,0,0,1,2.025.781a3.6,3.6,0,0,1,.884.332A1.444,1.444,0,0,1,3.557.5,3.1,3.1,0,0,1,5.622.05C6.075.2,5.882.649,5.194,1.049Z" transform="translate(40.241 23.196)" fill="#e43a3a"/>
      <path id="Path_1894" data-name="Path 1894" d="M3.256.657a2.518,2.518,0,0,1-.75.279,3.107,3.107,0,0,1,.561.133c.485.166.729.38.546.486a1.991,1.991,0,0,1-1.209-.1,1.872,1.872,0,0,1-.47-.217.935.935,0,0,1-.4.365,1.936,1.936,0,0,1-1.292.282c-.284-.095-.157-.373.268-.624A2.463,2.463,0,0,1,1.181,1,3.672,3.672,0,0,1,.72.909C.194.776-.112.577.038.458A2.016,2.016,0,0,1,1.268.489,2.257,2.257,0,0,1,1.821.7a.892.892,0,0,1,.4-.383A1.939,1.939,0,0,1,3.518.031C3.8.126,3.686.406,3.256.657Z" transform="translate(15.391 35.878)" fill="#e43a3a"/>
      <path id="Path_1895" data-name="Path 1895" d="M35.06,63.7V51.871H21.669v-35.4A14.237,14.237,0,0,0,14.124,3.736,12.778,12.778,0,0,0,0,5.376,12.934,12.934,0,0,1,14.882.785,14.116,14.116,0,0,1,23.864,14.15v35.4H37.256V63.7Z" transform="translate(22.085 35.936)" opacity="0.1"/>
      <path id="Path_1896" data-name="Path 1896" d="M0,.584.045.222,1.527,0s.121.1.314.227a4.5,4.5,0,0,0,1.443.71C4.06,1.1,6.528,2.273,5.733,2.349s-.713-.1-.713-.1a1.26,1.26,0,0,1-1.781.078A12.153,12.153,0,0,0,.354.727C.135.635,0,.584,0,.584Z" transform="translate(19.361 95.978)" fill="#efb7b9"/>
      <path id="Path_1897" data-name="Path 1897" d="M2.19,7.633a2.4,2.4,0,0,0,.71.192.835.835,0,0,0,.676-.239c.1-.1.157-.239.251-.345.452-.511,1.328-.129,1.872-.526a2.005,2.005,0,0,0,.557-1.121c.119-.413.336-.866.734-.954a2.06,2.06,0,0,1,.579.023.552.552,0,0,0,.521-.2c.185-.3-.071-.793.2-1.005.24-.187.674.075.842-.186a.406.406,0,0,0-.058-.431A2.974,2.974,0,0,1,8.8,2.477a.574.574,0,0,1,.029-.561.508.508,0,0,1,.481-.239c.169.018.35.119.5.032a.377.377,0,0,0,.157-.294A.759.759,0,0,0,9.306.6,1.563,1.563,0,0,0,8.495.89a.971.971,0,0,1-.826.141A1.28,1.28,0,0,1,7.336.784,3.6,3.6,0,0,0,6.314.143,1.2,1.2,0,0,0,5.294.1c-.353.191-.535.655-.908.8S3.587.769,3.229.545,2.394.133,2.07.409c-.348.3-.241.892-.453,1.309a1.263,1.263,0,0,1-.34.4c-.238.194-.51.34-.75.531a1.327,1.327,0,0,0-.511.76A1.6,1.6,0,0,0,.308,4.483,3.059,3.059,0,0,1,.788,5.5c.047.282,0,.576.061.854a1.03,1.03,0,0,0,.646.722c.176.063.207.046.3.211A.636.636,0,0,0,2.19,7.633Z" transform="translate(23.091 93.086)" fill="#3f3d56"/>
      <g id="Group_240" data-name="Group 240" transform="translate(23.093 93.05)" opacity="0.1">
        <path id="Path_1898" data-name="Path 1898" d="M.01.5A1.491,1.491,0,0,0,.038,0,1.42,1.42,0,0,0,.01.5Z" transform="translate(8.119 3.884)"/>
        <path id="Path_1899" data-name="Path 1899" d="M.092.182A.566.566,0,0,1,.039,0,.59.59,0,0,0,.058.464,2.925,2.925,0,0,0,.33.824.628.628,0,0,1,.409.99L.421.975A.406.406,0,0,0,.365.546,2.944,2.944,0,0,1,.092.182Z" transform="translate(8.708 2.3)"/>
        <path id="Path_1900" data-name="Path 1900" d="M.494,2.927c.24-.192.51-.332.748-.532a1.242,1.242,0,0,0,.34-.4c.212-.416.105-1.012.453-1.309.323-.275.8-.09,1.16.136s.765.5,1.156.347.555-.605.909-.8A1.215,1.215,0,0,1,6.28.424a3.617,3.617,0,0,1,1.021.64,1.351,1.351,0,0,0,.332.249.969.969,0,0,0,.828-.143A1.533,1.533,0,0,1,9.271.885a.759.759,0,0,1,.651.682.521.521,0,0,0,.034-.146A.758.758,0,0,0,9.305.605,1.57,1.57,0,0,0,8.5.889a.985.985,0,0,1-.828.143A1.386,1.386,0,0,1,7.336.784,3.623,3.623,0,0,0,6.315.142,1.209,1.209,0,0,0,5.3.094c-.354.191-.535.655-.909.8S3.587.769,3.231.544,2.393.132,2.07.409c-.348.3-.241.891-.453,1.309a1.255,1.255,0,0,1-.34.395c-.237.194-.508.34-.748.532a1.327,1.327,0,0,0-.513.76A.947.947,0,0,0,0,3.6,1.379,1.379,0,0,1,.494,2.927Z"/>
      </g>
      <path id="Path_1901" data-name="Path 1901" d="M.538.644,0,.523A.9.9,0,0,1,1.347.206C2.164.811.538.644.538.644Z" transform="translate(23.684 86.718)" fill="#4c4981"/>
      <path id="Path_1902" data-name="Path 1902" d="M.538.644,0,.523A.9.9,0,0,1,1.347.206C2.164.811.538.644.538.644Z" transform="translate(23.684 86.718)" opacity="0.1"/>
      <path id="Path_1903" data-name="Path 1903" d="M0,5.736s.746-.408,1.441-.881A3.948,3.948,0,0,0,2.565,3.87c.37-.663,2.169-1.383,2.169-1.383L6.518,1.05a2.6,2.6,0,0,0,1-.931C7.566.046,7.6,0,7.6,0l.715.1.376.518s.1,1.141-.648,1.128a.979.979,0,0,0-.419.114A8.933,8.933,0,0,0,5.7,3.409S3.8,5.92,3.233,6a.9.9,0,0,0-.179.048,5.832,5.832,0,0,0-1.411,1Z" transform="translate(35.817 73.042)" fill="#efb7b9"/>
      <path id="Path_1904" data-name="Path 1904" d="M.037,7.1A18.69,18.69,0,0,1,1.368,3.105a6.619,6.619,0,0,0,.525-1.788L2,.488A1,1,0,0,1,2.109.166,1.772,1.772,0,0,1,2.209,0L3.641.466s-.083.348-.209.748A3.462,3.462,0,0,1,2.94,2.3c-.35.363-.4,1.646-.4,1.646s-.292,2.465-.381,2.775A4.5,4.5,0,0,0,2,7.632c-.014.166-.024.355-.025.569a12.267,12.267,0,0,1-.226,1.825L.08,9.706.036,7.73A1.391,1.391,0,0,1,.037,7.1Z" transform="translate(28.487 64.419)" fill="#efb7b9"/>
      <path id="Path_1905" data-name="Path 1905" d="M0,.119C.05.046.08,0,.08,0L.8.1l.376.518s.1,1.141-.648,1.128a.978.978,0,0,0-.419.114c-.061-.342.3-.625.3-.625S.563,1.116.521.581A.5.5,0,0,0,0,.119Z" transform="translate(43.32 73.042)" opacity="0.1"/>
      <path id="Path_1906" data-name="Path 1906" d="M0,.78C.047.6.5.326.812.157.969.074,1.087.016,1.11,0c.072-.038.452.408.5.768A6.7,6.7,0,0,0,2.57,2.25a4.2,4.2,0,0,1,.336,1.4c.035.489-.157.529-.384.418a1.536,1.536,0,0,1-.43-.357,1.128,1.128,0,0,0-.557-.305,2.647,2.647,0,0,1-.8-.362C.514,2.9.3,2.714.263,2.549.18,2.2.56,1.9.56,1.9s.157-.116.114-.652S0,.8,0,.78Z" transform="translate(43.241 72.311)" fill="#444053"/>
      <path id="Path_1907" data-name="Path 1907" d="M0,.157C.157.074.274.016.3,0,.37-.036.75.41.8.77a6.7,6.7,0,0,0,.957,1.48,4.2,4.2,0,0,1,.336,1.4c.035.489-.157.529-.384.418A5.8,5.8,0,0,0,1.4,2.534C1.167,2.066.249.563,0,.157Z" transform="translate(44.052 72.311)" opacity="0.1"/>
      <path id="Path_1908" data-name="Path 1908" d="M.069.194.055.166A1.77,1.77,0,0,1,.155,0L1.587.466s-.083.348-.209.748C.812,1.38,0,.333,0,.333Z" transform="translate(30.541 64.421)" opacity="0.1"/>
      <path id="Path_1909" data-name="Path 1909" d="M.041.382A5.573,5.573,0,0,1,1.766.007c.409.051.426.252.4.663-.009.133-.022.285-.03.461-.027.73-.3.878-.3.878C1.376,3.27.067,1.578.067,1.578l.067-.139A1.6,1.6,0,0,1,0,.75,2.121,2.121,0,0,1,.041.382Z" transform="translate(30.473 63.105)" fill="#444053"/>
      <path id="Path_1910" data-name="Path 1910" d="M.041.382A5.572,5.572,0,0,1,1.766.007c.409.051.427.252.4.663a1.217,1.217,0,0,0-.974-.3A3.676,3.676,0,0,0,0,.75,2.122,2.122,0,0,1,.041.382Z" transform="translate(30.474 63.105)" opacity="0.1"/>
      <path id="Path_1911" data-name="Path 1911" d="M0,2.837.47.68l.1-.445L1.43.119,2.321,0,3.29.372a3.654,3.654,0,0,1,.047,1.707,1.077,1.077,0,0,1-.448.625,1.006,1.006,0,0,0-.187.153.868.868,0,0,0-.157.237,1.027,1.027,0,0,0-.083.343,2.557,2.557,0,0,0,.3,1.219S.707,5.4.867,4.918c.105-.31-.185-.851-.4-1.193C.348,3.542.252,3.414.252,3.414Z" transform="translate(24.592 91.308)" fill="#efb7b9"/>
      <ellipse id="Ellipse_113" data-name="Ellipse 113" cx="1.784" cy="1.888" rx="1.784" ry="1.888" transform="translate(24.661 94.976)" opacity="0.1"/>
      <ellipse id="Ellipse_114" data-name="Ellipse 114" cx="1.784" cy="1.888" rx="1.784" ry="1.888" transform="translate(24.653 95.046)" fill="#efb7b9"/>
      <path id="Path_1912" data-name="Path 1912" d="M.2,1.719A4.741,4.741,0,0,1,.67.647L3.161,0l1.78,1.971v.013c-.055.184-.734,2.508-.243,3.08.514.6.314,2.276.314,2.276S4.122,8.422,3.942,8.684s-1.334.468-1.334.468c.058-.083.111-.166.157-.237a2.385,2.385,0,0,0,.284-.637,1,1,0,0,0-.024-.692.79.79,0,0,1-.061-.177c-.194-.9-1.082-.775-1.435-.685-.091.023-.147.043-.147.043L.533,6.738,0,6.72s.243-4.442.185-4.8A.6.6,0,0,1,.2,1.719Z" transform="translate(24.521 85.25)" fill="#f86d70"/>
      <path id="Path_1913" data-name="Path 1913" d="M.011,0,1.556.214H1.527c-.091.023-.146.043-.146.043L.532.229,0,.211S0,.138.011,0Z" transform="translate(24.524 91.741)" fill="#925978"/>
      <path id="Path_1914" data-name="Path 1914" d="M0,.173.67,0,1.725.146,2,.45Z" transform="translate(26.268 85.441)" fill="#925978"/>
      <path id="Path_1915" data-name="Path 1915" d="M0,.078.3,0,.427.138Z" transform="translate(27.383 85.247)" fill="#925978"/>
      <path id="Path_1916" data-name="Path 1916" d="M.2.065C.594.022.961,0,.961,0L3.014.081V2.349a3.032,3.032,0,0,1-.828.577c-.358.131-.784.532-.7,1.591a1.6,1.6,0,0,0,.017.189,2.574,2.574,0,0,1,.019.357,1.961,1.961,0,0,1-.569,1.4.281.281,0,0,1-.03.028L.59,8.133a.316.316,0,0,1-.067-.01C.4,7.939.309,7.811.309,7.811L.063,7.241l.47-2.156L0,5.066S.243.624.185.27A.6.6,0,0,1,.2.065Z" transform="translate(24.524 86.904)" opacity="0.1"/>
      <path id="Path_1917" data-name="Path 1917" d="M3.036,0,5.088.08V2.349a3.052,3.052,0,0,1-.826.577c-.378.139-.828.577-.682,1.78a2.04,2.04,0,0,1-.546,1.763L3,6.5,2.669,8.143a.716.716,0,0,1-.528-.32,1.407,1.407,0,0,0-.124-.192A.3.3,0,0,0,1.6,7.5c-.216.1-1.148.518-1.356.109A15.544,15.544,0,0,1,0,4.772a1.877,1.877,0,0,0,.6-1.05c.143-.7.381-.712.381-.712L1.242,1.02S1.476.587,1.3.348" transform="translate(22.383 86.889)" fill="#444053"/>
      <path id="Path_1918" data-name="Path 1918" d="M0,1.169.35.061,1.018,0,.986.028.652,1.674a.715.715,0,0,1-.528-.32A1.407,1.407,0,0,0,0,1.169Z" transform="translate(24.399 93.35)" fill="#444053"/>
      <path id="Path_1919" data-name="Path 1919" d="M0,.584.045.222,1.527,0s.121.1.314.227C1.684.265.947.435.561.559.419.605.325.645.321.672S.331.7.354.723C.135.635,0,.584,0,.584Z" transform="translate(19.361 95.978)" opacity="0.1"/>
      <path id="Path_1920" data-name="Path 1920" d="M.4,2.561A9.412,9.412,0,0,1,3.123,1,7.012,7.012,0,0,0,5.161,0l.627,2.558-.384.28a1.283,1.283,0,0,0-.855-.2c-.4.1-.833.166-.833.166a6.165,6.165,0,0,1-1.065.309c-.282.025-.168.413.114.619a.6.6,0,0,0,.118.07.352.352,0,0,1,.47-.113,1.1,1.1,0,0,1,.276.272h0a3.812,3.812,0,0,1,.314.5s-.877.2-1.312.342c-.143.046-.237.086-.24.113-.013.106.784.441.784.441S2.5,5.7,2.22,5.448c0,0,.179-.141.034-.28S.373,3.613.373,3.613-.485,3.167.4,2.561Z" transform="translate(17.221 91.66)" fill="#444053"/>
      <path id="Path_1921" data-name="Path 1921" d="M0,.232.93.091a.6.6,0,0,0,.118.07.351.351,0,0,1,.47-.113A1.1,1.1,0,0,1,1.794.32h0a3.926,3.926,0,0,1,.254.42s-.877.2-1.312.342Z" transform="translate(19.068 95.298)" opacity="0.1"/>
      <path id="Path_1922" data-name="Path 1922" d="M0,.311.989.16A.352.352,0,0,1,1.46.047a2.407,2.407,0,0,1,.59.773s-.877.2-1.312.342Z" transform="translate(19.121 95.298)" fill="#444053"/>
      <path id="Path_1923" data-name="Path 1923" d="M1.648,2.2,0,.881S.746.473,1.441,0C2.048.435,2.62.829,3.055,1.2A6.012,6.012,0,0,0,1.648,2.2Z" transform="translate(35.819 77.889)" opacity="0.1"/>
      <path id="Path_1924" data-name="Path 1924" d="M.037,0A5.331,5.331,0,0,1,1.245.305,7.659,7.659,0,0,1,2,.534C1.986.7,1.977.889,1.975,1.1a12.263,12.263,0,0,1-.226,1.825L.08,2.608.036.632A1.391,1.391,0,0,1,.037,0Z" transform="translate(28.487 71.517)" opacity="0.1"/>
      <path id="Path_1925" data-name="Path 1925" d="M1,7.687C1.331,7.161,2.25,4.925,2.25,4.925a9.585,9.585,0,0,1,.7-1.14,10.491,10.491,0,0,0,.9-2.453C4.122.458,3.763.622,3.8.171S5.411.3,5.411.3,8.618,1.05,9.6,3.124s4.894,3.951,5.686,5.117-.224.685-.185,1.317a1.841,1.841,0,0,1-.412,1.161,6.221,6.221,0,0,0-1.717.748,10.338,10.338,0,0,1-1.419,1.075,7.74,7.74,0,0,0-1.254.687,7.88,7.88,0,0,1-1.863.829c-.4.1-.8.713-.8.713s-.249-.035-.618.343a5.942,5.942,0,0,1-1.915.7C2.463,13.762.639,14.049.639,14.049L.6,13.66C-.806,11.726.66,8.213,1,7.687Z" transform="translate(24.553 71.845)" fill="#444053"/>
      <path id="Path_1926" data-name="Path 1926" d="M0,.1S2.282-.7,4.507,2.243C1.866.2.042.483.042.483Z" transform="translate(25.15 85.411)" opacity="0.1"/>
      <path id="Path_1927" data-name="Path 1927" d="M0,4.855S3.064.175,3.254,0A49.657,49.657,0,0,1,0,4.855Z" transform="translate(29.077 79.283)" opacity="0.1"/>
      <path id="Path_1928" data-name="Path 1928" d="M0,3.955S2.122.471,2.079,0A26.022,26.022,0,0,0,0,3.955Z" transform="translate(27.661 80.541)" opacity="0.1"/>
      <path id="Path_1929" data-name="Path 1929" d="M.2,3.054A5.679,5.679,0,0,0,0,0Z" transform="translate(26.227 80.485)" opacity="0.1"/>
      <path id="Path_1930" data-name="Path 1930" d="M.2,2.034A9.573,9.573,0,0,0,0,0Z" transform="translate(25.406 81.392)" opacity="0.1"/>
      <path id="Path_1931" data-name="Path 1931" d="M0,1.31,2.818.143,1.786,0Z" transform="translate(30.806 83.62)" opacity="0.1"/>
      <path id="Path_1932" data-name="Path 1932" d="M.583.9C.724.8.842.645,1.01.621a.642.642,0,0,1,.347.09,1.213,1.213,0,0,0,.889.128C2.659.694,2.887.19,3.3.041a.712.712,0,0,1,.4-.023.741.741,0,0,1,.223.1A.759.759,0,0,1,4.23.585a1.007,1.007,0,0,1-.314.919,1.877,1.877,0,0,1-.877.421,8.209,8.209,0,0,1-2.534.061.353.353,0,0,1-.2-.055,1.284,1.284,0,0,1-.3-.783C.069.925.56,1.091.583.9Z" transform="translate(24.675 97.078)" opacity="0.1"/>
      <path id="Path_1933" data-name="Path 1933" d="M.583.9C.724.8.84.644,1.01.62a.635.635,0,0,1,.345.091,1.214,1.214,0,0,0,.889.128c.414-.146.641-.65,1.054-.8a.7.7,0,0,1,.618.071.775.775,0,0,1,.323.471,1.012,1.012,0,0,1-.321.921,1.882,1.882,0,0,1-.877.42,8.209,8.209,0,0,1-2.534.063.358.358,0,0,1-.2-.056,1.29,1.29,0,0,1-.3-.783C.069.917.56,1.093.583.9Z" transform="translate(24.667 97.149)" fill="#3f3d56"/>
      <path id="Path_1934" data-name="Path 1934" d="M0,1.153.27,0l.35.224,1.9,1.213s1.44.056,1.551,1.281-1.6.012-1.69-.081-.3-.257-.3-.257L.314,1.334Z" transform="translate(36.082 95.508)" fill="#efb7b9"/>
      <path id="Path_1935" data-name="Path 1935" d="M0,1.153.27,0l.35.224A2.859,2.859,0,0,1,.306,1.335Z" transform="translate(36.083 95.508)" opacity="0.1"/>
      <path id="Path_1936" data-name="Path 1936" d="M0,2.405.387,0,2.68.5c-.055.184-.734,2.508-.243,3.08.514.6.314,2.276.314,2.276S1.861,6.94,1.681,7.2.347,7.67.347,7.67a1.026,1.026,0,0,0-.083.343,1.432,1.432,0,0,1-.088-.257A.971.971,0,0,1,.787,6.8c.039-.02.08-.038.124-.056.069-.03.146-.058.227-.085l.038-.012a1.312,1.312,0,0,0,.9-.7A1.865,1.865,0,0,0,2.41,4.683C2.338,3.945,0,2.405,0,2.405Z" transform="translate(26.779 86.718)" opacity="0.1"/>
      <path id="Path_1937" data-name="Path 1937" d="M0,2.4.387,0,2.979.571a5.192,5.192,0,0,1-.259,1.276,7.125,7.125,0,0,0-.144,1.806A2,2,0,0,1,3.1,5.92s3.226.554,3.28.664A9.448,9.448,0,0,0,7.508,7.3a5.835,5.835,0,0,1,1.327.5,1.443,1.443,0,0,0,.191.184.5.5,0,0,0,.063.043l.086-.788h.039a1.029,1.029,0,0,1,.508.212,4.562,4.562,0,0,1-.329,2.662.282.282,0,0,1-.149,0,1.657,1.657,0,0,1-.557-.319l-.045-.038L8.626,9.74a10.72,10.72,0,0,1-1.752-.884,11.489,11.489,0,0,0-2.562-.632s-1.018-.255-1.149-.1-1.686.406-1.816.166-.491-.2-.491-.2C.6,8.4.423,8.282.315,8.1a1.294,1.294,0,0,1-.138-.347A1.008,1.008,0,0,1,.913,6.74c.082-.033.169-.066.265-.1a1.307,1.307,0,0,0,.9-.7,1.862,1.862,0,0,0,.337-1.261C2.343,3.943,0,2.4,0,2.4Z" transform="translate(26.848 86.738)" fill="#444053"/>
      <path id="Path_1938" data-name="Path 1938" d="M.6,2.881a.23.23,0,0,0,.083-.01A4.566,4.566,0,0,0,1.01.207,1.022,1.022,0,0,0,.557,0H.517L.431.788A.508.508,0,0,1,.368.745V.778A2.138,2.138,0,0,1,0,2.528Z" transform="translate(35.485 93.961)" opacity="0.1"/>
      <path id="Path_1939" data-name="Path 1939" d="M.4.788.481,0a1.01,1.01,0,0,1,.554.224A4.561,4.561,0,0,1,.706,2.886c-.2.066-.563-.2-.706-.317A2.14,2.14,0,0,0,.4.788Z" transform="translate(35.52 93.964)" fill="#444053"/>
      <path id="Path_1940" data-name="Path 1940" d="M.735,0l.372.368-.969,1A1.294,1.294,0,0,1,0,1.017,1.011,1.011,0,0,1,.735,0Z" transform="translate(27.091 93.483)" fill="#444053"/>
      <path id="Path_1941" data-name="Path 1941" d="M.563,1.042C.7.944.82.785.99.761a.635.635,0,0,1,.345.091A1.214,1.214,0,0,0,2.224.98c.414-.146.641-.65,1.054-.8a.7.7,0,0,1,.4-.023.737.737,0,0,1,.546.566.8.8,0,0,1,.017.211.831.831,0,0,0,0-.352A.769.769,0,0,0,3.912.113.685.685,0,0,0,3.69.018.693.693,0,0,0,3.3.041c-.414.148-.641.652-1.055.8A1.222,1.222,0,0,1,1.352.712.635.635,0,0,0,1.007.62C.839.644.721.8.58.9.557,1.093.066.917,0,1.148a.291.291,0,0,0,0,.106C.1,1.076.54,1.222.563,1.042Z" transform="translate(24.67 97.149)" opacity="0.1"/>
      <path id="Path_1942" data-name="Path 1942" d="M.4.816S.191.206.453,0c0,0-.287.808-.453.79" transform="translate(26.354 91.945)" opacity="0.1"/>
      <path id="Path_1943" data-name="Path 1943" d="M.715,1.425S-.61.212.348.017.715,1.425.715,1.425Z" transform="translate(38.726 97.282)" fill="#efb7b9"/>
      <g id="Group_241" data-name="Group 241" transform="translate(67.653 10.553)" opacity="0.1">
        <path id="Path_1944" data-name="Path 1944" d="M60.91,54.565H19.67V15.925C19.67,7.09,13.28,1,5.46,1A14.934,14.934,0,0,0,0,2.009,14.639,14.639,0,0,1,7.5,0c7.82,0,14.21,6.091,14.21,14.929V53.57h39.2Z"/>
        <path id="Path_1945" data-name="Path 1945" d="M0,0H2.038V10.452h39.2v1H0Z" transform="translate(19.667 63.206)"/>
        <path id="Path_1946" data-name="Path 1946" d="M19.67,82.94V15.925C19.67,7.09,13.28,1,5.46,1A14.935,14.935,0,0,0,0,2.009,14.638,14.638,0,0,1,7.5,0c7.82,0,14.21,6.091,14.21,14.929V82.94Z" transform="translate(50.02 0.003)"/>
      </g>
      <path id="Path_1947" data-name="Path 1947" d="M.464,3.976C1.475,1.765,3.13-.75,5,.21S8.268,5.245,7.257,7.459,3.9,10.681,2.027,9.72-.549,6.184.464,3.976Z" transform="translate(90.259 104.81)" fill="#e43a3a"/>
      <path id="Path_1948" data-name="Path 1948" d="M.959,0s.365.065.226.383A.593.593,0,0,1,1.14.464,1.062,1.062,0,0,0,1,.876a1.58,1.58,0,0,0,.017.513l-1,.07S.41,1.11.364.927A.1.1,0,0,0,.319.864.152.152,0,0,0,.253.834L.178.811C-.084.713.021.574.021.574.055.119.959,0,.959,0Z" transform="translate(93.767 103.62)" fill="#e43a3a"/>
      <path id="Path_1949" data-name="Path 1949" d="M0,.1.7,0a.968.968,0,0,0-.02.114C.5.123.223.148.046.166A.1.1,0,0,0,0,.1Z" transform="translate(94.086 104.381)" fill="#444053"/>
      <path id="Path_1950" data-name="Path 1950" d="M.959,0s.365.065.226.383A1.069,1.069,0,0,0,.753.365.961.961,0,0,0,.178.811C-.084.713.021.574.021.574.055.119.959,0,.959,0Z" transform="translate(93.767 103.62)" fill="#e43a3a"/>
      <path id="Path_1951" data-name="Path 1951" d="M.959,0s.365.065.226.383A1.069,1.069,0,0,0,.753.365.961.961,0,0,0,.178.811C-.084.713.021.574.021.574.055.119.959,0,.959,0Z" transform="translate(93.767 103.62)" opacity="0.1"/>
      <path id="Path_1952" data-name="Path 1952" d="M0,.721S1.113.863,1.429.079a.849.849,0,0,1-.4-.025A.541.541,0,0,0,.768,0,1.524,1.524,0,0,1,0,.721Z" transform="translate(94.193 113.577)" fill="#fff" opacity="0.1"/>
      <path id="Path_1953" data-name="Path 1953" d="M.429.077A.4.4,0,0,1,.492.143a.857.857,0,0,0,.238.2A.816.816,0,0,0,.829.4a1.393,1.393,0,0,0,.314.1A1.186,1.186,0,0,0,1.3.513l-.141.713v.01l-.061.31a2.286,2.286,0,0,0-.141-.26C.884,1.17.8,1.059.705,1.057a.108.108,0,0,0-.071.028.224.224,0,0,0-.044.06c-.016.027-.028.05-.042.071-.157.239-.256.09-.256.09C.114,1.238.04,1.012.014.785A.343.343,0,0,0,0,.687,2.753,2.753,0,0,1,.02.2S.181-.152.429.077Z" transform="translate(94.959 98.233)" fill="#e43a3a"/>
      <path id="Path_1954" data-name="Path 1954" d="M.088,0a.824.824,0,0,0,.1.053C.152.207.11.44.08.622V.66A.119.119,0,0,1,.071.715.108.108,0,0,0,0,.743L.016.632V.587Z" transform="translate(95.614 98.576)" fill="#444053"/>
      <path id="Path_1955" data-name="Path 1955" d="M.429.077A1.247,1.247,0,0,0,.3.511a.994.994,0,0,0,.03.275C.335.813.341.84.351.865a.819.819,0,0,0,.2.352c-.157.239-.256.09-.256.09C.114,1.238.04,1.012.014.785A.34.34,0,0,0,0,.687,2.753,2.753,0,0,1,.02.2S.181-.152.429.077Z" transform="translate(94.96 98.233)" fill="#e43a3a"/>
      <path id="Path_1956" data-name="Path 1956" d="M.429.077A1.247,1.247,0,0,0,.3.511a.994.994,0,0,0,.03.275C.335.813.341.84.351.865a.819.819,0,0,0,.2.352c-.157.239-.256.09-.256.09C.114,1.238.04,1.012.014.785A.34.34,0,0,0,0,.687,2.753,2.753,0,0,1,.02.2S.181-.152.429.077Z" transform="translate(94.96 98.233)" opacity="0.1"/>
      <path id="Path_1957" data-name="Path 1957" d="M2.046,1.648A11.242,11.242,0,0,1,4.8.22,3.207,3.207,0,0,1,6.768.111a1.785,1.785,0,0,1,.668.408,2,2,0,0,1,.337.425A6.287,6.287,0,0,1,7.9,5.636,5.17,5.17,0,0,1,6.122,8.37a3.867,3.867,0,0,1-5.576-.96A4.375,4.375,0,0,1,2.046,1.648Z" transform="translate(86.57 103.488)" fill="#e43a3a"/>
      <path id="Path_1958" data-name="Path 1958" d="M2.046,1.648A11.242,11.242,0,0,1,4.8.22,3.207,3.207,0,0,1,6.768.111a1.785,1.785,0,0,1,.668.408,2,2,0,0,1,.337.425A6.287,6.287,0,0,1,7.9,5.636,5.17,5.17,0,0,1,6.122,8.37a3.867,3.867,0,0,1-5.576-.96A4.375,4.375,0,0,1,2.046,1.648Z" transform="translate(86.57 103.488)" opacity="0.1"/>
      <path id="Path_1959" data-name="Path 1959" d="M.445.157C.695-.211,1.521.184,1.521.184s.281.255,0,.45A.655.655,0,0,1,1.444.68a.877.877,0,0,0-.249.187c-.025.027-.05.055-.074.085a1.57,1.57,0,0,0-.176.294A1.254,1.254,0,0,0,.884,1.4L0,.9A1.918,1.918,0,0,0,.278.831C.4.787.53.724.554.638a.111.111,0,0,0,0-.08A.2.2,0,0,0,.511.5.777.777,0,0,1,.459.436C.281.215.445.157.445.157Z" transform="translate(93.051 102.755)" fill="#e43a3a"/>
      <path id="Path_1960" data-name="Path 1960" d="M0,0,.648.3C.623.328.6.357.574.387.417.3.168.163.006.08A.109.109,0,0,0,0,0Z" transform="translate(93.601 103.311)" fill="#444053"/>
      <path id="Path_1961" data-name="Path 1961" d="M.071.157C.32-.211,1.147.184,1.147.184s.281.255,0,.45A1.08,1.08,0,0,0,.787.381.908.908,0,0,0,.079.442C-.094.215.071.157.071.157Z" transform="translate(93.425 102.755)" fill="#e43a3a"/>
      <path id="Path_1962" data-name="Path 1962" d="M.071.157C.32-.211,1.147.184,1.147.184s.281.255,0,.45A1.08,1.08,0,0,0,.787.381.908.908,0,0,0,.079.442C-.094.215.071.157.071.157Z" transform="translate(93.425 102.755)" opacity="0.1"/>
      <path id="Path_1963" data-name="Path 1963" d="M0,.191S.88.926,1.535.431A.906.906,0,0,1,1.207.189.582.582,0,0,0,1.01,0,1.425,1.425,0,0,1,0,.191Z" transform="translate(88.859 111.561)" fill="#fff" opacity="0.1"/>
      <g id="Group_242" data-name="Group 242" transform="translate(96.988 103.498)" opacity="0.1">
        <path id="Path_1964" data-name="Path 1964" d="M.345.02l-.2,1.033A2.014,2.014,0,0,0,0,.793,1.955,1.955,0,0,1,.188,0,1.038,1.038,0,0,0,.345.02Z" transform="translate(0.961 0.495)"/>
        <path id="Path_1965" data-name="Path 1965" d="M.434.077A.492.492,0,0,1,.5.143a.888.888,0,0,0,.238.2A.821.821,0,0,0,.834.4a1.29,1.29,0,0,0,.314.1A1.046,1.046,0,0,0,1.3.515L1.1,1.548a2.022,2.022,0,0,0-.141-.26C.887,1.172.795,1.059.708,1.057a.111.111,0,0,0-.069.03.2.2,0,0,0-.049.053c-.014.027-.028.05-.041.071C.393,1.45.293,1.3.293,1.3-.11,1.145.02.2.02.2S.182-.15.434.077Z"/>
        <path id="Path_1966" data-name="Path 1966" d="M.094,0a.825.825,0,0,0,.1.053C.152.234.1.527.069.717A.111.111,0,0,0,0,.746Z" transform="translate(0.641 0.344)"/>
        <path id="Path_1967" data-name="Path 1967" d="M.429.076A1.268,1.268,0,0,0,.3.512a1.052,1.052,0,0,0,.252.705c-.157.239-.257.088-.257.088C-.11,1.151.02.2.02.2S.177-.151.429.076Z" transform="translate(0.005 0.001)"/>
        <path id="Path_1968" data-name="Path 1968" d="M.429.076A1.268,1.268,0,0,0,.3.512a1.052,1.052,0,0,0,.252.705c-.157.239-.257.088-.257.088C-.11,1.151.02.2.02.2S.177-.151.429.076Z" transform="translate(0.005 0.001)" opacity="0.1"/>
      </g>
      <path id="Path_1969" data-name="Path 1969" d="M.431.077A.413.413,0,0,1,.494.143a.886.886,0,0,0,.238.2A.819.819,0,0,0,.831.4a1.288,1.288,0,0,0,.314.1A1.038,1.038,0,0,0,1.3.513L1.1,1.547a2.153,2.153,0,0,0-.141-.26C.884,1.17.8,1.057.705,1.057a.1.1,0,0,0-.069.028.225.225,0,0,0-.046.06c-.014.027-.028.05-.041.071-.157.239-.257.09-.257.09C-.11,1.15.02.2.02.2S.178-.152.431.077Z" transform="translate(96.863 103.704)" fill="#e43a3a"/>
      <path id="Path_1970" data-name="Path 1970" d="M.094,0a.81.81,0,0,0,.1.053C.152.234.1.528.069.717A.1.1,0,0,0,0,.745Z" transform="translate(97.501 104.046)" fill="#444053"/>
      <path id="Path_1971" data-name="Path 1971" d="M.421.077A1.245,1.245,0,0,0,.29.512a1.051,1.051,0,0,0,.26.705c-.157.239-.257.09-.257.09C-.11,1.15.02.2.02.2S.169-.152.421.077Z" transform="translate(96.873 103.704)" fill="#e43a3a"/>
      <path id="Path_1972" data-name="Path 1972" d="M.421.077A1.245,1.245,0,0,0,.29.512a1.051,1.051,0,0,0,.26.705c-.157.239-.257.09-.257.09C-.11,1.15.02.2.02.2S.169-.152.421.077Z" transform="translate(96.873 103.704)" opacity="0.1"/>
      <g id="Group_243" data-name="Group 243" transform="translate(96.081 105.359)" opacity="0.1">
        <path id="Path_1973" data-name="Path 1973" d="M.125.284A1.73,1.73,0,0,1,.85,0,1.408,1.408,0,0,0,.922.149L0,.554A2.038,2.038,0,0,0,.125.284Z" transform="translate(0.277 1.153)"/>
        <path id="Path_1974" data-name="Path 1974" d="M.714,0s.365-.065.331.285a.571.571,0,0,1-.017.093A.964.964,0,0,0,1.005.7a.933.933,0,0,0,.016.116,1.652,1.652,0,0,0,.173.479l-.922.4A2.027,2.027,0,0,0,.4,1.436a.459.459,0,0,0,.038-.348.108.108,0,0,0-.063-.045.157.157,0,0,0-.071,0H.224C-.052,1.043.011.877.011.877-.1.424.714,0,.714,0Z" transform="translate(0.003 0)"/>
        <path id="Path_1975" data-name="Path 1975" d="M0,.332.627,0A.938.938,0,0,0,.643.116C.477.184.22.305.056.382A.11.11,0,0,0,0,.332Z" transform="translate(0.371 0.708)"/>
        <path id="Path_1976" data-name="Path 1976" d="M.716,0s.365-.065.331.285A1.084,1.084,0,0,0,.633.419a1.023,1.023,0,0,0-.409.619C-.052,1.038.01.872.01.872-.1.424.716,0,.716,0Z" transform="translate(0 0)"/>
        <path id="Path_1977" data-name="Path 1977" d="M.716,0s.365-.065.331.285A1.084,1.084,0,0,0,.633.419a1.023,1.023,0,0,0-.409.619C-.052,1.038.01.872.01.872-.1.424.716,0,.716,0Z" transform="translate(0 0)" opacity="0.1"/>
      </g>
      <path id="Path_1978" data-name="Path 1978" d="M.716,0s.365-.065.331.284a.541.541,0,0,1-.017.093A.975.975,0,0,0,1.007.7a.907.907,0,0,0,.016.114,1.41,1.41,0,0,0,.1.332A1.433,1.433,0,0,0,1.2,1.3l-.922.406A2.049,2.049,0,0,0,.4,1.435a.463.463,0,0,0,.038-.35.112.112,0,0,0-.063-.043.183.183,0,0,0-.071,0H.223C-.053,1.041.01.876.01.876-.1.423.716,0,.716,0Z" transform="translate(96.014 105.463)" fill="#e43a3a"/>
      <path id="Path_1979" data-name="Path 1979" d="M0,.332.627,0A.894.894,0,0,0,.643.114C.477.182.22.3.056.38A.115.115,0,0,0,0,.332Z" transform="translate(96.388 106.169)" fill="#444053"/>
      <path id="Path_1980" data-name="Path 1980" d="M.716,0s.365-.065.331.284A1.12,1.12,0,0,0,.632.419a1.019,1.019,0,0,0-.409.617C-.053,1.037.01.871.01.871-.1.423.716,0,.716,0Z" transform="translate(96.014 105.463)" fill="#e43a3a"/>
      <path id="Path_1981" data-name="Path 1981" d="M.716,0s.365-.065.331.284A1.12,1.12,0,0,0,.632.419a1.019,1.019,0,0,0-.409.617C-.053,1.037.01.871.01.871-.1.423.716,0,.716,0Z" transform="translate(96.014 105.463)" opacity="0.1"/>
      <path id="Path_1982" data-name="Path 1982" d="M.191,0A2.072,2.072,0,0,0,.334.259C.409.375.5.486.586.486A.1.1,0,0,0,.657.456.215.215,0,0,0,.7.4C.715.37.729.347.742.325.9.083,1,.234,1,.234c.4.149.282,1.1.282,1.1s-.157.357-.408.131A.6.6,0,0,1,.809,1.4,1,1,0,0,0,.47,1.15a1.353,1.353,0,0,0-.314-.095A.943.943,0,0,0,0,1.037Z" transform="translate(92.926 100.924)" fill="#e43a3a"/>
      <path id="Path_1983" data-name="Path 1983" d="M.116.03A.1.1,0,0,0,.186,0L.1.745A.807.807,0,0,0,0,.693C.041.511.088.217.116.03Z" transform="translate(93.395 101.381)" fill="#444053"/>
      <path id="Path_1984" data-name="Path 1984" d="M0,.138C.157-.1.257.046.257.046c.4.149.282,1.1.282,1.1S.383,1.5.132,1.277A1.209,1.209,0,0,0,.257.841,1.039,1.039,0,0,0,0,.138Z" transform="translate(93.667 101.112)" fill="#e43a3a"/>
      <path id="Path_1985" data-name="Path 1985" d="M0,.138C.157-.1.257.046.257.046c.4.149.282,1.1.282,1.1S.383,1.5.132,1.277A1.209,1.209,0,0,0,.257.841,1.039,1.039,0,0,0,0,.138Z" transform="translate(93.667 101.112)" opacity="0.1"/>
      <path id="Path_1986" data-name="Path 1986" d="M1.392,0a3.38,3.38,0,0,1,.471,1.659c.075.116.168.227.252.227a.1.1,0,0,0,.071-.03A.216.216,0,0,0,2.23,1.8c.014-.028.028-.051.041-.073.157-.242.257-.091.257-.091.4.149.282,1.1.282,1.1s-.157.357-.408.131A.586.586,0,0,1,2.338,2.8,1,1,0,0,0,2,2.55a1.352,1.352,0,0,0-.314-.095,2.243,2.243,0,0,1-.29.461A3.569,3.569,0,0,1,0,3.89,8.053,8.053,0,0,1,1.392,0Z" transform="translate(91.392 99.528)" opacity="0.1"/>
      <path id="Path_1987" data-name="Path 1987" d="M0,0A2.6,2.6,0,0,1,.337.08a2.865,2.865,0,0,1,.3.11L.7.217C.784.255.869.3.953.343s.127.07.191.108A7.445,7.445,0,0,1,4.014,4.13a5.062,5.062,0,0,1,.281,1.264,3.593,3.593,0,0,1-.009.688A5.054,5.054,0,0,1,3.7,7.942c-.034.061-.067.119-.1.176a3.689,3.689,0,0,1-3.5,1.9A4.052,4.052,0,0,1,1.441,7.879a.464.464,0,0,0,.038-.35.112.112,0,0,0-.063-.043.182.182,0,0,0-.071,0h-.08c-.276,0-.213-.166-.213-.166-.108-.44.706-.859.706-.859s.365-.065.331.284a.541.541,0,0,1-.017.093.977.977,0,0,0-.022.322.89.89,0,0,0,.016.114,1.41,1.41,0,0,0,.1.332,1.907,1.907,0,0,1,.524,0,2.664,2.664,0,0,1,.715.206c-.033-.055-.063-.109-.091-.166a3.393,3.393,0,0,1-.47-1.659c-.072-.116-.157-.229-.251-.229a.1.1,0,0,0-.069.028.225.225,0,0,0-.046.06c-.014.027-.028.05-.041.071-.157.239-.257.09-.257.09-.4-.156-.273-1.1-.273-1.1s.157-.355.409-.126a.4.4,0,0,1,.063.066.884.884,0,0,0,.238.2.816.816,0,0,0,.1.053,1.288,1.288,0,0,0,.314.1,2.125,2.125,0,0,1,.293-.459l.063-.071-.022-.022A12.832,12.832,0,0,1,1.973,3.075a5.883,5.883,0,0,1-.358-.528Q1.5,2.36,1.4,2.175A3.4,3.4,0,0,1,.938.516C.865.4.781.289.687.287A.108.108,0,0,0,.616.315a.224.224,0,0,0-.044.06C.557.4.544.425.53.446.373.685.274.536.274.536A.635.635,0,0,1,0,0Z" transform="translate(94.975 99.018)" opacity="0.1"/>
      <g id="Group_244" data-name="Group 244" transform="translate(91.256 97.967)" opacity="0.1">
        <path id="Path_1988" data-name="Path 1988" d="M.508.151A.536.536,0,0,1,.772.113.876.876,0,0,0,1.157,0C1.1.849,0,1.095,0,1.095A1.6,1.6,0,0,0,.508.151Z" transform="translate(5.003 9.198)"/>
        <path id="Path_1989" data-name="Path 1989" d="M.035,1.469C.056,1.3.078,1.122.1.947A3.207,3.207,0,0,1,2.074.837C2.2.794,2.326.731,2.35.645a.11.11,0,0,0,0-.08A.2.2,0,0,0,2.308.5.8.8,0,0,1,2.256.442C2.08.215,2.245.157,2.245.157c.249-.368,1.076.027,1.076.027s.281.255,0,.45A.663.663,0,0,1,3.244.68a.878.878,0,0,0-.249.187c-.025.027-.05.055-.074.085a1.575,1.575,0,0,0-.176.294,1.99,1.99,0,0,1,.337.425,6.288,6.288,0,0,1,.125,4.693C1.169,6.057-.245,3.874.035,1.469Z" transform="translate(0 4.788)"/>
        <path id="Path_1990" data-name="Path 1990" d="M.129.287A1.729,1.729,0,0,1,.851,0,1.235,1.235,0,0,0,.925.149L0,.547A2.348,2.348,0,0,0,.129.287Z" transform="translate(1.811 1.148)"/>
        <path id="Path_1991" data-name="Path 1991" d="M.717.005s.367-.066.331.284a.521.521,0,0,1-.016.093A.985.985,0,0,0,1.01.7a.877.877,0,0,0,.014.114,1.555,1.555,0,0,0,.1.332A1.237,1.237,0,0,0,1.2,1.3l-.924.4A2.356,2.356,0,0,0,.4,1.427a.47.47,0,0,0,.036-.35.1.1,0,0,0-.061-.045.2.2,0,0,0-.072,0,.668.668,0,0,1-.079,0C-.053,1.032.01.866.01.866-.1.423.717.005.717.005Z" transform="translate(1.536 0)"/>
        <path id="Path_1992" data-name="Path 1992" d="M0,.332.627,0A.457.457,0,0,0,.641.114C.477.182.218.3.055.38A.107.107,0,0,0,0,.332Z" transform="translate(1.911 0.7)"/>
        <path id="Path_1993" data-name="Path 1993" d="M.717,0s.365-.065.331.285A1.069,1.069,0,0,0,.634.419a1.014,1.014,0,0,0-.409.617C-.053,1.036.01.871.01.871-.1.423.717,0,.717,0Z" transform="translate(1.536 0)"/>
        <path id="Path_1994" data-name="Path 1994" d="M.717,0s.365-.065.331.285A1.069,1.069,0,0,0,.634.419a1.014,1.014,0,0,0-.409.617C-.053,1.036.01.871.01.871-.1.423.717,0,.717,0Z" transform="translate(1.536 0)" opacity="0.1"/>
        <path id="Path_1995" data-name="Path 1995" d="M.508.151A.536.536,0,0,1,.772.113.876.876,0,0,0,1.157,0C1.1.849,0,1.095,0,1.095A1.6,1.6,0,0,0,.508.151Z" transform="translate(5.003 9.198)" opacity="0.1"/>
      </g>
      <path id="Path_1996" data-name="Path 1996" d="M.036,5.128C.32,2.69,1.115-.253,3.183.017S7.812,3.667,7.528,6.107,5.333,10.3,3.266,10.03-.249,7.565.036,5.128Z" transform="translate(91.479 98.96)" fill="#e43a3a"/>
      <path id="Path_1997" data-name="Path 1997" d="M.719.005s.365-.066.331.284a.754.754,0,0,1-.016.093A.942.942,0,0,0,1.011.7a.7.7,0,0,0,.016.114A1.546,1.546,0,0,0,1.2,1.3L.279,1.7s.26-.463.157-.62a.108.108,0,0,0-.063-.045.228.228,0,0,0-.071,0H.224C-.054,1.038.009.873.009.873-.094.421.719.005.719.005Z" transform="translate(93.015 97.832)" fill="#e43a3a"/>
      <path id="Path_1998" data-name="Path 1998" d="M0,.332.627,0A.68.68,0,0,0,.643.114C.477.182.22.3.056.38A.109.109,0,0,0,0,.332Z" transform="translate(93.393 98.537)" fill="#444053"/>
      <path id="Path_1999" data-name="Path 1999" d="M.716.005s.365-.066.331.284A1.054,1.054,0,0,0,.632.42a1.007,1.007,0,0,0-.408.617C-.053,1.037.01.871.01.871-.1.421.716.005.716.005Z" transform="translate(93.019 97.832)" fill="#e43a3a"/>
      <path id="Path_2000" data-name="Path 2000" d="M.716.005s.365-.066.331.284A1.054,1.054,0,0,0,.632.42a1.007,1.007,0,0,0-.408.617C-.053,1.037.01.871.01.871-.1.421.716.005.716.005Z" transform="translate(93.019 97.832)" opacity="0.1"/>
      <path id="Path_2001" data-name="Path 2001" d="M0,1.095S1.1.849,1.157,0A.863.863,0,0,1,.77.111a.543.543,0,0,0-.262.04A1.611,1.611,0,0,1,0,1.095Z" transform="translate(96.483 107.027)" fill="#fff" opacity="0.1"/>
      <path id="Path_2002" data-name="Path 2002" d="M1.086,16.129a.66.66,0,0,0,.486-.29.74.74,0,0,0,.108-.579c-.138-.489-.706-.644-1.076-.97a2.046,2.046,0,0,1-.593-1.359,3.445,3.445,0,0,1,.9-2.634c.332-.347.734-.612,1.062-.964A5.78,5.78,0,0,0,2.9,7.854,3.6,3.6,0,0,0,3.3,6.609a3.035,3.035,0,0,0-.674-1.928A13.176,13.176,0,0,1,1.448,2.993,3.734,3.734,0,0,1,1.255.212.363.363,0,0,1,1.366.026.119.119,0,0,1,1.466,0a.125.125,0,0,1,.082.064" transform="translate(92.704 82.521)" fill="none" stroke="#444053" stroke-miterlimit="10" stroke-width="1"/>
      <path id="Path_2003" data-name="Path 2003" d="M3.183,6.834A.347.347,0,0,0,3.2,6.413a.475.475,0,0,0-.383-.187c-.177,0-.375.058-.521-.051a.488.488,0,0,1-.157-.36A1.936,1.936,0,0,0,2.1,5.408a.818.818,0,0,0-.169-.292.853.853,0,0,0-.314-.242c-.262-.108-.564-.01-.833-.1a1.229,1.229,0,0,1-.649-.9,2.722,2.722,0,0,1-.077-1.39,4.958,4.958,0,0,1,.356-.853A2.016,2.016,0,0,0,.644.746.821.821,0,0,0,.2,0" transform="translate(92.534 91.939)" fill="none" stroke="#444053" stroke-miterlimit="10" stroke-width="1"/>
      <path id="Path_2004" data-name="Path 2004" d="M20.383,4.131c-.422-.594-.582-1.543-1.272-1.687a1.517,1.517,0,0,0-1.027.305,7.108,7.108,0,0,1-2.352,1.024A2.453,2.453,0,0,1,13.4,3.028c-.378-.468-.533-1.095-.866-1.6A3.1,3.1,0,0,0,10.774.208,6.808,6.808,0,0,0,8.645.016a1.111,1.111,0,0,0-.751.216A1.947,1.947,0,0,0,7.58.737a2.068,2.068,0,0,1-1.676.98,4.2,4.2,0,0,1-1.932-.433,1.97,1.97,0,0,0-.963-.257A1.772,1.772,0,0,0,1.9,1.865,16.781,16.781,0,0,0,0,5.14" transform="translate(74.911 83.934)" fill="none" stroke="#444053" stroke-miterlimit="10" stroke-width="1"/>
      <path id="Path_2005" data-name="Path 2005" d="M.007,1.55C.175,2.2.285,2.763.285,2.763A2.652,2.652,0,0,0,.6,3.992l.008.177h0L.653,5.478a4.545,4.545,0,0,1-.287.7A5.4,5.4,0,0,0,.437,8.1a8.87,8.87,0,0,1,.751,3.447C1.036,12.9,3.1,17.462,3.1,17.462a6.191,6.191,0,0,1-.13,1.327,1.192,1.192,0,0,0-.014.279v.023a10.775,10.775,0,0,0,.784,2.528L3.768,24.8A9.86,9.86,0,0,0,4.2,29.174c.273.868.453,1.563.571,2.1.014.061.027.119.038.176-1.411.289-2.5.524-2.5.524s.958,3.621,1.54,4.238a8.66,8.66,0,0,1,1.1,2.611s.384,2.569-.058,3.343a5.233,5.233,0,0,0-.455,2.085s-1.041.866-1.162,1.237a6.368,6.368,0,0,0-.3,1.637c.016.435.157.818.127,1.047s.353,1.085.188,1.5a1.221,1.221,0,0,0-.056.4v.012a5.86,5.86,0,0,0,.133,1.068,2.8,2.8,0,0,0,1.082.556l.027.1.069.254c.038.025.074.045.108.063v.093l.024.372-.138.841C4.26,54.894,6.1,55.037,6.1,55.037a.976.976,0,0,0,.536.459c.373.123-.019-2.185-.2-2.322a9.036,9.036,0,0,1-.765-1.161h0l-.035-.058a.8.8,0,0,0,.082-.1l-.088-.5-.014-.076a2.137,2.137,0,0,0,.273-.539,1.155,1.155,0,0,1-.3-.813,2.7,2.7,0,0,0-.147-1c.02.022.267.282.5.207s.883-.31.883-.31.488-.113.439-.224.314-.63.314-.63L8.96,49.228c.014.04.03.078.042.119a3.421,3.421,0,0,1,.136.574,2.9,2.9,0,0,0-.417.166.907.907,0,0,0-.356.262,1.554,1.554,0,0,0-.19.61,8.9,8.9,0,0,1-.448,1.174,3.968,3.968,0,0,0-.188,2.085,1.417,1.417,0,0,0,.226.6c.226.305.627.416.914.654s.491.614.828.788a1.5,1.5,0,0,0,1.005.05,5.218,5.218,0,0,0,1.844-.795.921.921,0,0,1,.616-.242.829.829,0,0,1,.47.332v.018l.014.018a2.592,2.592,0,0,0,.168-1.053.742.742,0,0,0-.013-.166v-.058a.246.246,0,0,1,0-.048h0a.3.3,0,0,1,0-.075.541.541,0,0,1,.116-.194,1,1,0,0,0,.1-.166.2.2,0,0,1-.016.058.865.865,0,0,0,.121-.446.46.46,0,0,0-.11-.31,1.372,1.372,0,0,0-.223-.174,2.7,2.7,0,0,0-1.3-2.719c-.016-.038-.033-.078-.049-.118a3.5,3.5,0,0,1-.295-1.513.341.341,0,0,1,.013-.111.718.718,0,0,0,.044-.06h0s2.176-.111,2.708.36,1.254-1.254,1.254-1.254.776-.191.941-.038,1.073-.02,1.073-.02a1.9,1.9,0,0,0,1.38.469,3.951,3.951,0,0,0,1.021.547h.025a1.07,1.07,0,0,0,.492.046,10.259,10.259,0,0,1,1.436,1.382c.331.489,1.882,2.3,1.894,2.3l.008.091.027.27a.907.907,0,0,1,.133-.018c.009.027.02.058.034.093a5.064,5.064,0,0,0,.343.755s.013.343-.08.433a6.146,6.146,0,0,0,.089,1.342s1.051,2.347,1.852.531a1.571,1.571,0,0,0,.171-2.508s-.557-.257-.643-.476c-.056-.143-.257-.539-.39-.8-.024-.043-.044-.083-.061-.118l.016-.015-.028-.222-.013-.086c.254-.166.423-.332.376-.443a2.661,2.661,0,0,1-.179-.61A16.5,16.5,0,0,1,23.618,47s-5.2-2.986-6.885-3.152l.232-1.611s.053-.964.019-1.305.132-1.906.132-1.906a13.332,13.332,0,0,1,.441-2.626,4.634,4.634,0,0,0,.14-1.7,12.085,12.085,0,0,1,.265-1.956,5.289,5.289,0,0,0,0-1.946s.773-2.092-1.206-.614c0,0-1,.106-2.142.194v-.123c0-.156,0-.332-.013-.5-.027-1.179-.08-2.8-.174-4.029-.169-2.166-.95-6.436-.95-6.436L13.4,17.138a2.974,2.974,0,0,0,.036-.619,4.173,4.173,0,0,0-.627-2.138l-.24-1.425a5.877,5.877,0,0,1-.43-1.493.75.75,0,0,1,.011-.138,1.07,1.07,0,0,0,.009-.222,12.788,12.788,0,0,0-.431-2.2s-.08-1.576-.314-1.659c-.193-.071.223-.919.347-1.161a.454.454,0,0,1,.009.045l.027-.05a1.175,1.175,0,0,0,.055-.4.584.584,0,0,0-.268-.544c-.434-.255-.67-.476-.314-.581a3.959,3.959,0,0,0,.39-.1.168.168,0,0,0,.02.053.256.256,0,0,0,.136-.284,1.21,1.21,0,0,0-.157-.529,5.743,5.743,0,0,0-.646-1.14l-.171.027a.905.905,0,0,1,.093-.2.746.746,0,0,1,.243-.247.758.758,0,0,1,.3-.123.848.848,0,0,0,.627-.352.721.721,0,0,0-.118-1.08L10.371.054s-2.76-.265-2.59.38.279,1.213.279,1.213a2.7,2.7,0,0,0,.273,1.135,1.2,1.2,0,0,0,.1.166l-.1.017A5.571,5.571,0,0,1,7.932,4.7c-.06.066-.072.116-.055.153-.025.08.045.123.136.144a.258.258,0,0,1,.017-.056,1.348,1.348,0,0,0,.268.02s.118.75-.157,1.037a.3.3,0,0,0-.049.226,1.3,1.3,0,0,0,.042.307l.009-.018a11.452,11.452,0,0,0,.7,1.745,2.27,2.27,0,0,1-.121.965,25.54,25.54,0,0,0,.157,3.724,12.449,12.449,0,0,0,.223,2.44,2.933,2.933,0,0,1-.185,1.7v.05a.042.042,0,0,1,0,.012l.036.262v-.017c.061.44.176,1.236.251,1.6.108.521.089,3.039.089,3.039l-.364,1.091L8.152,21.3l-.844-2.427a2.163,2.163,0,0,1-.423-1.033V17.76a1.46,1.46,0,0,0,0-.166,1.525,1.525,0,0,0-.263-.871,3.938,3.938,0,0,0-.566-1.442,1.353,1.353,0,0,1-.343-.854,15.9,15.9,0,0,0-.627-1.966,3.168,3.168,0,0,1-.2-1.143h0v-.061s-.075-.6-.091-1.111V9.979a1.942,1.942,0,0,1,.031-.413s0-.015,0-.023v.085A4.534,4.534,0,0,0,4.9,8.569a2.815,2.815,0,0,0-.489-1.732c-.627-.707-1.005-.6-1.005-.6s.257-.926.607-1.123a.156.156,0,0,0,.038-.027.1.1,0,0,0,.011.053.465.465,0,0,0,.093-.345,2.517,2.517,0,0,0-.492-1.337.7.7,0,0,0-.314-.174l.055-.04c.044-.027.083-.048.121-.066a.553.553,0,0,1,.18-.056.839.839,0,0,0,.627-.352.719.719,0,0,0-.116-1.08L2.6,1.172S-.162.905.007,1.55Z" transform="translate(69.99 33.183)" fill="url(#linear-gradient-2)"/>
      <path id="Path_2006" data-name="Path 2006" d="M2.513.056,4.081.575A.741.741,0,0,1,4.2,1.657a.809.809,0,0,1-.6.35.8.8,0,0,0-.527.37,1.26,1.26,0,0,0-.157.639S1.235,3.609.752,3.1a1.353,1.353,0,0,1-.216-.31A2.781,2.781,0,0,1,.277,1.645S.17,1.08.007.433,2.513.056,2.513.056Z" transform="translate(77.936 33.171)" fill="#2d293d"/>
      <path id="Path_2007" data-name="Path 2007" d="M2.519.059,4.087.578A.739.739,0,0,1,4.2,1.658a.8.8,0,0,1-.6.35.59.59,0,0,0-.174.058.776.776,0,0,0-.116.066,1.066,1.066,0,0,0-.4.878S1.237,3.6.754,3.1a1.3,1.3,0,0,1-.171-.227,2.71,2.71,0,0,1-.3-1.231S.17,1.073.007.427,2.519.059,2.519.059Z" transform="translate(70.415 34.281)" fill="#2d293d"/>
      <path id="Path_2008" data-name="Path 2008" d="M.216.725A1.35,1.35,0,0,1,0,.415H0L2.531,0a1.26,1.26,0,0,0-.157.639S.7,1.231.216.725Z" transform="translate(78.473 35.549)" opacity="0.1"/>
      <path id="Path_2009" data-name="Path 2009" d="M.019,1.044,0,.547C.37-.16,2.288-.087,2.855.236A.779.779,0,0,0,2.739.3a1.055,1.055,0,0,0-.4.873S.666,1.769.183,1.263A1.3,1.3,0,0,1,.019,1.044Z" transform="translate(70.985 36.116)" opacity="0.1"/>
      <path id="Path_2010" data-name="Path 2010" d="M.073,3.624a4.556,4.556,0,0,0,.278-.7l-.066-1.8C.689.35,2.95.509,3.264.909s.681,1.46.342,1.659-.586,1.123-.586,1.123.364-.106.974.6a3.976,3.976,0,0,1,.4,2.73,8.543,8.543,0,0,0,.063,1.69,3.561,3.561,0,0,0,.194,1.2,15.643,15.643,0,0,1,.613,1.967,1.392,1.392,0,0,0,.334.856,4.038,4.038,0,0,1,.549,1.441,1.557,1.557,0,0,1,.252.974,2.054,2.054,0,0,0,.411,1.173l.823,2.438.759,1.825.343-1.1s.016-2.518-.089-3.041-.285-1.911-.285-1.911a2.966,2.966,0,0,0,.176-1.7A12.312,12.312,0,0,1,8.319,10.4a27.438,27.438,0,0,1-.157-3.724,2.469,2.469,0,0,0,.116-.965s-.96-1.976-.688-2.261.157-1.037.157-1.037-.6.025-.354-.26A5.791,5.791,0,0,0,7.8.426L10.4,0a5.86,5.86,0,0,1,.627,1.141c.376.829-.036.758-.381.863s-.116.332.3.582.205.884.205.884-.586,1.146-.367,1.229.3,1.659.3,1.659a10.764,10.764,0,0,1,.409,2.364,4.8,4.8,0,0,0,.408,1.7l.2,1.433a4.14,4.14,0,0,1,.574,2.7l.082,2.216s.76,4.271.927,6.439c.105,1.387.157,3.286.183,4.47.014.664.019,1.1.019,1.1L4.595,30.193a8.485,8.485,0,0,0-.223-1.46c-.114-.539-.29-1.234-.555-2.1A10.163,10.163,0,0,1,3.4,22.254l-.03-3.178a8.452,8.452,0,0,1-.753-2.83,6.37,6.37,0,0,0,.125-1.327S.736,10.356.882,9A9.129,9.129,0,0,0,.151,5.552,5.6,5.6,0,0,1,.073,3.624Z" transform="translate(70.697 35.719)" fill="#3f3d56"/>
      <path id="Path_2011" data-name="Path 2011" d="M2.823.463,0,.979S1.543-.823,2.823.463Z" transform="translate(73.72 50.567)" opacity="0.05"/>
      <path id="Path_2012" data-name="Path 2012" d="M.2,1.483S.059.425.666,0C.66,0-.435.234.2,1.483Z" transform="translate(74.04 52.982)" opacity="0.1"/>
      <path id="Path_2013" data-name="Path 2013" d="M0,2.035S2.3-.13,3.169.006,0,2.035,0,2.035Z" transform="translate(74.529 55.806)" opacity="0.1"/>
      <path id="Path_2014" data-name="Path 2014" d="M0,1.448S1.788.941,1.813.173,0,1.448,0,1.448Z" transform="translate(80.016 48.468)" opacity="0.1"/>
      <path id="Path_2015" data-name="Path 2015" d="M.464,1.453S2.993.848,2.258.534A11.755,11.755,0,0,0,.329,0S-.494-.018.464,1.453Z" transform="translate(78.806 38.95)" opacity="0.05"/>
      <g id="Group_245" data-name="Group 245" transform="translate(70.694 35.78)" opacity="0.05">
        <path id="Path_2016" data-name="Path 2016" d="M.47.639a.532.532,0,0,1,.246.381L.742.97S.956.345.536.088L.4,0C.325.018.243.033.166.056-.179.163.058.382.47.639Z" transform="translate(10.406 2.5)"/>
        <path id="Path_2017" data-name="Path 2017" d="M.048.192C-.019.264-.01.44.04.664A1.333,1.333,0,0,0,.161,0,.544.544,0,0,1,.048.192Z" transform="translate(7.551 3.263)"/>
        <path id="Path_2018" data-name="Path 2018" d="M.034.846A3.228,3.228,0,0,0,.176,0,3.589,3.589,0,0,1,0,.586S.013.687.034.846Z" transform="translate(8.371 13.96)"/>
        <path id="Path_2019" data-name="Path 2019" d="M.016.221A1.13,1.13,0,0,0,0,.471C.027.305.044.139.055,0,.044.073.027.146.016.221Z" transform="translate(2.597 16.024)"/>
        <path id="Path_2020" data-name="Path 2020" d="M.051.136A1.557,1.557,0,0,0,0,.647,1.806,1.806,0,0,0,.106,0,.665.665,0,0,1,.051.136Z" transform="translate(8.12 6.546)"/>
        <path id="Path_2021" data-name="Path 2021" d="M.143,2.394A9.363,9.363,0,0,0,.39.979L2.99.552a5.86,5.86,0,0,1,.627,1.141c.033.073.06.139.082.2.157-.083.209-.257-.016-.75A5.852,5.852,0,0,0,3.056,0L.456.426A5.76,5.76,0,0,1,.064,2.16C-.064,2.3.02,2.364.143,2.394Z" transform="translate(7.342)"/>
        <path id="Path_2022" data-name="Path 2022" d="M.409,1.659S.33.083.111,0h0C.012.265-.046.516.047.552c.22.083.3,1.659.3,1.659A10.749,10.749,0,0,1,.755,4.575a4.79,4.79,0,0,0,.408,1.7l.2,1.433a4.145,4.145,0,0,1,.574,2.7l.08,2.216s.762,4.271.927,6.438c.107,1.388.157,3.286.185,4.47,0,.214.008.4.009.566l.075-.012s0-.441-.019-1.1c-.025-1.184-.078-3.084-.183-4.47-.166-2.168-.927-6.439-.927-6.439L2.007,9.855a4.14,4.14,0,0,0-.574-2.7l-.2-1.433a4.8,4.8,0,0,1-.408-1.7A10.73,10.73,0,0,0,.409,1.659Z" transform="translate(10.67 4.698)"/>
        <path id="Path_2023" data-name="Path 2023" d="M2.913.876a2.759,2.759,0,0,1,.453,1.07C3.624,1.68,3.28.7,2.979.325S.406-.234,0,.537L.016.972A2.969,2.969,0,0,1,2.913.876Z" transform="translate(0.288 0.584)"/>
        <path id="Path_2024" data-name="Path 2024" d="M.012,1.018A4.778,4.778,0,0,0,.289.32L.277,0C.233.118.168.277.077.466A1.439,1.439,0,0,0,0,1.035Z" transform="translate(0 3.158)"/>
        <path id="Path_2025" data-name="Path 2025" d="M.193,0A4.488,4.488,0,0,0,0,.552s.364-.106.972.6a3.4,3.4,0,0,1,.47,2.178A3.977,3.977,0,0,0,1.041.6,1.545,1.545,0,0,0,.193,0Z" transform="translate(2.956 3.688)"/>
        <path id="Path_2026" data-name="Path 2026" d="M.16,1.352A12.675,12.675,0,0,1,.068,0C.055.088.043.166.03.214A8.551,8.551,0,0,0,.093,1.9a3.579,3.579,0,0,0,.2,1.2A15.671,15.671,0,0,1,.9,5.074a1.39,1.39,0,0,0,.334.856,4.043,4.043,0,0,1,.55,1.443,1.57,1.57,0,0,1,.251.974A2.054,2.054,0,0,0,2.446,9.52l.825,2.438.757,1.825.35-1.09v-.348l-.282.886-.754-1.825L2.519,8.967a2.054,2.054,0,0,1-.411-1.173,1.558,1.558,0,0,0-.252-.974,4.037,4.037,0,0,0-.549-1.442,1.394,1.394,0,0,1-.334-.856A15.635,15.635,0,0,0,.359,2.558,3.606,3.606,0,0,1,.16,1.352Z" transform="translate(4.3 7.357)"/>
      </g>
      <path id="Path_2027" data-name="Path 2027" d="M.027,1.621.159.78.137.408.12.134,1.017,0l.108.194h0a8.24,8.24,0,0,0,.743,1.161c.173.143.554,2.45.191,2.322a.956.956,0,0,1-.519-.461S-.239,3.084.027,1.621Z" transform="translate(74.844 84.982)" fill="#ffcdd3"/>
      <path id="Path_2028" data-name="Path 2028" d="M0,.134.9,0l.108.194h0A.763.763,0,0,1,.017.408Z" transform="translate(74.964 84.982)" opacity="0.1"/>
      <path id="Path_2029" data-name="Path 2029" d="M0,.332,1.178,0,1.21.186l.085.5a.816.816,0,0,1-.53.359A.783.783,0,0,1,.151.9L.083.642Z" transform="translate(74.72 84.343)" fill="#dce6f2"/>
      <path id="Path_2030" data-name="Path 2030" d="M0,.771,1.243,0l.124.249c.13.262.325.664.379.8.083.219.627.478.627.478a1.6,1.6,0,0,1-.157,2.506C1.444,5.851.423,3.5.423,3.5A6.454,6.454,0,0,1,.337,2.16c.088-.09.077-.431.077-.431A5.141,5.141,0,0,1,.08.972,1.6,1.6,0,0,1,0,.771Z" transform="translate(93.996 84.957)" fill="#ffcdd3"/>
      <path id="Path_2031" data-name="Path 2031" d="M0,.771,1.243,0l.124.249C1.193.415.583.985.37.969a1.407,1.407,0,0,0-.3,0C.024.851,0,.771,0,.771Z" transform="translate(93.998 84.957)" opacity="0.1"/>
      <path id="Path_2032" data-name="Path 2032" d="M0,.8,1.4,0l.041.332.028.222s-.8.783-1.044.765a1.221,1.221,0,0,0-.372.017L.025,1.063Z" transform="translate(93.853 84.529)" fill="#dce6f2"/>
      <path id="Path_2033" data-name="Path 2033" d="M0,.663s6.189-1,5.041-.547A1.639,1.639,0,0,0,3.9,1.591,3.61,3.61,0,0,0,4.182,3.1a6.634,6.634,0,0,0,.6,1.161S.13,7.222.989,4.669a4.248,4.248,0,0,0,.226-1.2,3.544,3.544,0,0,0-.166-1.2A3.615,3.615,0,0,0,0,.663Z" transform="translate(78.116 80.254)" fill="#ffcdd3"/>
      <path id="Path_2034" data-name="Path 2034" d="M.107,1.7A4.247,4.247,0,0,0,.333.5,2.1,2.1,0,0,1,1.887.064,2.658,2.658,0,0,1,3.3.129,6.637,6.637,0,0,0,3.9,1.29S-.758,4.254.107,1.7Z" transform="translate(79.004 83.229)" opacity="0.1"/>
      <ellipse id="Ellipse_115" data-name="Ellipse 115" cx="2.572" cy="2.72" rx="2.572" ry="2.72" transform="translate(78.49 83.115)" fill="#ffcdd3"/>
      <path id="Path_2035" data-name="Path 2035" d="M0,.663s6.189-1,5.041-.547A1.639,1.639,0,0,0,3.9,1.591a3.388,3.388,0,0,1-1.3.8,1.771,1.771,0,0,1-1.126.065,1.54,1.54,0,0,1-.417-.184A3.614,3.614,0,0,0,0,.663Z" transform="translate(78.116 80.254)" opacity="0.1"/>
      <path id="Path_2036" data-name="Path 2036" d="M0,.332,1.178,0,1.21.186A1.024,1.024,0,0,1,.083.645Z" transform="translate(74.72 84.343)" opacity="0.1"/>
      <path id="Path_2037" data-name="Path 2037" d="M0,.8,1.4,0l.041.332a10.3,10.3,0,0,1-1.411.732Z" transform="translate(93.854 84.529)" opacity="0.1"/>
      <path id="Path_2038" data-name="Path 2038" d="M0,1.053C2.393.556,5.8-.108,6.349.043A15,15,0,0,0,9.5,0c.014.664.019,1.1.019,1.1L.223,2.513A8.482,8.482,0,0,0,0,1.053Z" transform="translate(75.056 63.397)" opacity="0.1"/>
      <path id="Path_2039" data-name="Path 2039" d="M0,2.284S7.875.522,8.736.761A32.328,32.328,0,0,0,13.953.526c1.915-1.473,1.17.617,1.17.617a5.318,5.318,0,0,1,0,1.944,12.582,12.582,0,0,0-.252,1.956,4.782,4.782,0,0,1-.133,1.7,13.733,13.733,0,0,0-.423,2.626s-.157,1.563-.125,1.9-.017,1.305-.017,1.305l-.223,1.611c1.628.166,6.669,3.162,6.669,3.162a16.678,16.678,0,0,0,2.2,3.5,2.7,2.7,0,0,0,.172.61c.144.36-1.773,1.161-1.773,1.161s-1.516-1.815-1.836-2.3a10.117,10.117,0,0,0-1.392-1.385,1,1,0,0,1-.47-.046H17.5a3.781,3.781,0,0,1-.989-.549,1.817,1.817,0,0,1-1.336-.471s-.881.166-1.038.02-.906.036-.906.036-.695,1.722-1.209,1.251-2.623-.363-2.623-.363a3.085,3.085,0,0,1-1.361.881,1.771,1.771,0,0,1-1.126.066,1.4,1.4,0,0,1-.453-.211L5.128,18.277s-.35.518-.3.63-.423.224-.423.224-.627.231-.855.309-.463-.184-.483-.207a2.81,2.81,0,0,1,.144,1,1.18,1.18,0,0,0,.289.811c-.684,1.991-2.451.421-2.451.421a3.968,3.968,0,0,1-.075-1.485c.158-.418-.22-1.272-.185-1.5s-.108-.614-.124-1.048a6.551,6.551,0,0,1,.287-1.636,5.6,5.6,0,0,1,1.123-1.236,5.422,5.422,0,0,1,.444-2.078c.427-.773.052-3.342.052-3.342A8.892,8.892,0,0,0,1.5,6.521C.933,5.9,0,2.284,0,2.284Z" transform="translate(72.676 62.862)" fill="#3f3d56"/>
      <path id="Path_2040" data-name="Path 2040" d="M.039,0S.3.745.522.8a4.855,4.855,0,0,1,.638.272l-.129.287s-.82-.2-.96-.45A2.07,2.07,0,0,1,.039,0Z" transform="translate(84.728 79.71)" opacity="0.1"/>
      <path id="Path_2041" data-name="Path 2041" d="M0,.514C.036.285,1.951,0,1.951,0L1.01,1.072H.986A3.785,3.785,0,0,1,0,.514Z" transform="translate(89.159 80.687)" opacity="0.1"/>
      <path id="Path_2042" data-name="Path 2042" d="M8.728,3.649C8.75,3.673,3.644-2.632,0,1.28.006,1.28,5.941.18,8.728,3.649Z" transform="translate(75.814 69.871)" opacity="0.1"/>
      <path id="Path_2043" data-name="Path 2043" d="M3.04,3.736a10.032,10.032,0,0,0-1.2-2A7.758,7.758,0,0,0,0,0,35.707,35.707,0,0,1,3.04,3.736Z" transform="translate(82.82 73.045)" opacity="0.1"/>
      <path id="Path_2044" data-name="Path 2044" d="M1.847,2.9S1.28.7,0,0Z" transform="translate(85.094 77.421)" opacity="0.1"/>
      <path id="Path_2045" data-name="Path 2045" d="M1.715,2.684A2.48,2.48,0,0,0,0,0S.881.277,1.715,2.684Z" transform="translate(85.961 77.384)" opacity="0.1"/>
      <path id="Path_2046" data-name="Path 2046" d="M1.331.975A15.046,15.046,0,0,1,0,0S.718,1.043,1.331.975Z" transform="translate(73.703 81.103)" opacity="0.1"/>
      <path id="Path_2047" data-name="Path 2047" d="M3.972.414A.574.574,0,0,0,3.759.055.5.5,0,0,0,3.514.007,4.859,4.859,0,0,0,1.2.339.879.879,0,0,0,.855.6a1.583,1.583,0,0,0-.183.609A9.278,9.278,0,0,1,.239,2.384,4.093,4.093,0,0,0,.06,4.459a1.454,1.454,0,0,0,.218.6c.22.305.6.416.886.655s.47.614.8.788a1.361,1.361,0,0,0,.972.051,4.934,4.934,0,0,0,1.784-.793.884.884,0,0,1,.6-.242.834.834,0,0,1,.456.343A2.632,2.632,0,0,0,5.934,4.67a.571.571,0,0,1,0-.179A.564.564,0,0,1,6.047,4.3a.722.722,0,0,0,.093-.858c-.086-.1-.216-.154-.3-.257-.157-.184-.114-.461-.119-.707a.379.379,0,0,0-.066-.239.32.32,0,0,0-.314-.066A.845.845,0,0,1,5,2.22a.574.574,0,0,1-.3-.227A4.145,4.145,0,0,1,3.972.414Z" transform="translate(77.696 82.927)" fill="#3f3d56"/>
      <g id="Group_246" data-name="Group 246" transform="translate(78.446 82.951)" opacity="0.1">
        <path id="Path_2048" data-name="Path 2048" d="M.024.787A.873.873,0,0,1,.368.525,5.025,5.025,0,0,1,2.685.193a.535.535,0,0,1,.245.048A.574.574,0,0,1,3.142.6a4.385,4.385,0,0,0,.713,1.581.568.568,0,0,0,.3.227A.845.845,0,0,0,4.5,2.361a.317.317,0,0,1,.314.068.378.378,0,0,1,.066.239,1.1,1.1,0,0,0,.118.7c.085.1.215.156.3.257a.558.558,0,0,1,.069.542.652.652,0,0,0,.011-.728c-.088-.1-.218-.154-.3-.257C4.916,3,4.96,2.726,4.955,2.48a.379.379,0,0,0-.066-.239.32.32,0,0,0-.314-.066.854.854,0,0,1-.337.048A.568.568,0,0,1,3.936,2,4.3,4.3,0,0,1,3.222.414.574.574,0,0,0,3.009.055.5.5,0,0,0,2.765.007,4.859,4.859,0,0,0,.448.339.874.874,0,0,0,.1.6.759.759,0,0,0,0,.825Z"/>
        <path id="Path_2049" data-name="Path 2049" d="M.158,0A.4.4,0,0,0,.085.141a.526.526,0,0,0,0,.177,2.67,2.67,0,0,1-.085,1l.014.017A2.655,2.655,0,0,0,.163.138.912.912,0,0,1,.158,0Z" transform="translate(5.012 4.544)"/>
      </g>
      <path id="Path_2050" data-name="Path 2050" d="M3.5.1S.27-.222,0,.3" transform="translate(78.57 81.578)" opacity="0.1"/>
      <path id="Path_2051" data-name="Path 2051" d="M2.2.622S.411.692,0,0" transform="translate(73.693 82.712)" opacity="0.1"/>
    </g>
    <text id="Share_music_and_create_fan_base" data-name="Share music and create fan base" transform="translate(795 -2952.484)" fill="#fff" font-size="12" font-family="Roboto-Light, Roboto" font-weight="300"><tspan x="-85.916" y="0">Share music and create fan base</tspan></text>
  </g>
</svg>
