<svg xmlns="http://www.w3.org/2000/svg" xmlns:xlink="http://www.w3.org/1999/xlink" width="190" height="154.761" viewBox="0 0 190 154.761">
  <defs>
    <linearGradient id="linear-gradient" x1="0.5" y1="-0.001" x2="0.5" y2="1" gradientUnits="objectBoundingBox">
      <stop offset="0" stop-color="gray" stop-opacity="0.251"/>
      <stop offset="0.54" stop-color="gray" stop-opacity="0.122"/>
      <stop offset="1" stop-color="gray" stop-opacity="0.102"/>
    </linearGradient>
    <linearGradient id="linear-gradient-2" x1="0.499" y1="0.042" x2="0.499" y2="1.111" xlink:href="#linear-gradient"/>
    <linearGradient id="linear-gradient-3" x1="0.5" y1="0" x2="0.5" y2="1" xlink:href="#linear-gradient"/>
    <linearGradient id="linear-gradient-4" x1="0.5" y1="0" x2="0.5" y2="1" xlink:href="#linear-gradient"/>
    <linearGradient id="linear-gradient-5" x1="0" y1="0.5" x2="1" y2="0.5" xlink:href="#linear-gradient"/>
  </defs>
  <g id="Group_315" data-name="Group 315" transform="translate(-1636 3094.761)">
    <g id="undraw_development_ouy3" transform="translate(1821 -2979.327) rotate(180)">
      <g id="Group_247" data-name="Group 247" transform="translate(28.467 89.021)" opacity="0.5">
        <path id="Path_2052" data-name="Path 2052" d="M15.053,14.981a6.369,6.369,0,0,1,.24,2.107l-.085-.012.13.058.352.325h.01l.29.267a4,4,0,0,1,5.783,1.825c.35-.207.621-.3.666-.114A8.857,8.857,0,0,1,22.87,22a4.236,4.236,0,0,1-.1.921,4.941,4.941,0,0,1-4.458,3.467,4.653,4.653,0,0,1-4.15-1.567c-.807-1.068-2.395-1.784-3.1-2.918-.573-.915-.4-2.142-.666-3.2a9.432,9.432,0,0,1-.849-.621A6.041,6.041,0,0,1,7.9,16.46,23.293,23.293,0,0,1,5.988,13.89C2.912,9.165,1.049,7.629,0,7.194l8.821-.056a22.268,22.268,0,0,1,6-7.136l.054.029L14.914,0l1.461.809a32.3,32.3,0,0,0-3.427,7.3c.207.58.474,1.366.76,2.239a23.6,23.6,0,0,1,9-7.55l.652,1.159A38.344,38.344,0,0,0,15.053,14.981Z" transform="translate(1.149)" fill="url(#linear-gradient)"/>
        <path id="Path_2053" data-name="Path 2053" d="M1.153.149H0S.317-.186,1.153.149Z" transform="translate(0 7.016)" fill="url(#linear-gradient-2)"/>
      </g>
      <path id="Path_2054" data-name="Path 2054" d="M1.331,7.567A22.02,22.02,0,0,1,10.024,0l.594,1.058s-7.037,6.151-9.1,14.194l-.207-.18C-.441,13.544-.441,10.109,1.331,7.567Z" transform="translate(38.576 92.711)" fill="#4d8af0"/>
      <path id="Path_2055" data-name="Path 2055" d="M1.331,7.567A22.02,22.02,0,0,1,10.024,0l.594,1.058s-7.037,6.151-9.1,14.194l-.207-.18C-.441,13.544-.441,10.109,1.331,7.567Z" transform="translate(38.576 92.711)" opacity="0.05"/>
      <path id="Path_2056" data-name="Path 2056" d="M2.879,3.953l-1.37-.795L0,.844,2.152,0,3.984.818,5.236,1.972Z" transform="translate(38.024 104.991)" fill="#fda57d"/>
      <path id="Path_2057" data-name="Path 2057" d="M12.607,11.438s-2.583.207-6.093-5.191C1.474-1.5,0,.145,0,.145L12.534.067S15.322,7.688,15,9.174A1.993,1.993,0,0,0,12.607,11.438Z" transform="translate(27.563 96.585)" fill="#4d8af0"/>
      <path id="Path_2058" data-name="Path 2058" d="M0,2.873A3.984,3.984,0,0,1,1.474,0l.671.621L0,2.877Z" transform="translate(40.731 106.098)" opacity="0.1"/>
      <ellipse id="Ellipse_116" data-name="Ellipse 116" cx="3.653" cy="3.653" rx="3.653" ry="3.653" transform="matrix(0.006, 1, -1, 0.006, 47.936, 105.772)" fill="#fda57d"/>
      <path id="Path_2059" data-name="Path 2059" d="M11.2,4.315a6.388,6.388,0,0,1,.3,3.1,4.508,4.508,0,0,1-4.067,3.163,4.242,4.242,0,0,1-3.786-1.43c-.737-.973-.857-2.289-1.5-3.324C1.548,4.87.523,4.2.078,3.16a.648.648,0,0,1-.062-.453c.081-.238.364-.321.6-.393A4.531,4.531,0,0,0,3.357,0C3.289,1.937,4.688,3.579,6.008,5c.621.662,1.656,1.635,2.587,1.016C8.722,5.913,11.044,3.761,11.2,4.315Z" transform="translate(37.245 103.588)" opacity="0.1"/>
      <path id="Path_2060" data-name="Path 2060" d="M.847,2.651S1.581.654,0,0" transform="translate(40.545 101.003)" fill="#e43a3a"/>
      <rect id="Rectangle_1498" data-name="Rectangle 1498" width="172.626" height="75.174" transform="translate(0 22.908)" fill="url(#linear-gradient-3)"/>
      <rect id="Rectangle_1499" data-name="Rectangle 1499" width="169.935" height="72.854" transform="translate(1.449 26.376)" fill="#2c2c2c"/>
      <path id="Path_2061" data-name="Path 2061" d="M0,24.423V5.174H7.865V0a12.162,12.162,0,0,0,5.588,5.174h31.46V24.423Z" transform="translate(40.91 66.888)" fill="#e43a3a"/>
      <path id="Path_2062" data-name="Path 2062" d="M0,20.076V5.174H7.865V0a12.162,12.162,0,0,0,5.588,5.174H48.431v14.9Z" transform="translate(13.66 41.332)" fill="#e43a3a"/>
      <path id="Path_2063" data-name="Path 2063" d="M48.431,20.076V5.174H40.566V0a12.162,12.162,0,0,1-5.588,5.174H0v14.9Z" transform="translate(113.639 61.808)" fill="#e0e0e0"/>
      <path id="Path_2064" data-name="Path 2064" d="M89.826,13.66V5.174h-2.9V0A12.163,12.163,0,0,1,81.34,5.174H0V13.66Z" transform="translate(72.244 29.936)" fill="#e0e0e0"/>
      <ellipse id="Ellipse_117" data-name="Ellipse 117" cx="1.449" cy="1.449" rx="1.449" ry="1.449" transform="translate(156.689 37.765)" fill="#fff"/>
      <ellipse id="Ellipse_118" data-name="Ellipse 118" cx="1.449" cy="1.449" rx="1.449" ry="1.449" transform="translate(152.55 37.765)" fill="#fff"/>
      <ellipse id="Ellipse_119" data-name="Ellipse 119" cx="1.449" cy="1.449" rx="1.449" ry="1.449" transform="translate(148.41 37.765)" fill="#fff"/>
      <ellipse id="Ellipse_120" data-name="Ellipse 120" cx="1.449" cy="1.449" rx="1.449" ry="1.449" transform="translate(144.271 37.765)" fill="#fff"/>
      <path id="Path_2065" data-name="Path 2065" d="M.221,10.378A20.323,20.323,0,0,1,7.258,0L8.591.739S2.915,9.159,4.629,17.367l-.364-.085a5.5,5.5,0,0,1-4.044-6.9Z" transform="translate(34.468 90.155)" opacity="0.1"/>
      <path id="Path_2066" data-name="Path 2066" d="M.223,10.378A20.323,20.323,0,0,1,7.26,0L8.593.739S2.913,9.167,4.635,17.375l-.364-.085A5.5,5.5,0,0,1,.223,10.378Z" transform="translate(34.543 90.155)" fill="#4d8af0"/>
      <path id="Path_2067" data-name="Path 2067" d="M11.207,4.315a6.387,6.387,0,0,1,.3,3.1,4.508,4.508,0,0,1-4.067,3.163,4.242,4.242,0,0,1-3.785-1.43C2.922,8.18,1.475,7.525.828,6.491.227,5.532.53,4.2.078,3.16a.648.648,0,0,1-.062-.453c.081-.238.364-.321.6-.393A4.531,4.531,0,0,0,3.357,0C3.289,1.937,4.688,3.579,6.008,5c.621.662,1.656,1.635,2.587,1.016C8.728,5.915,11.05,3.763,11.207,4.315Z" transform="translate(37.239 103.668)" fill="#333"/>
      <path id="Path_2068" data-name="Path 2068" d="M0,1.965S1.933-.932,2.349.309s-.967,2.484-.967,2.484Z" transform="translate(41.46 89.364)" fill="#fda57d"/>
      <ellipse id="Ellipse_121" data-name="Ellipse 121" cx="0.967" cy="0.414" rx="0.967" ry="0.414" transform="translate(43.048 107.416) rotate(63.43)" fill="#fda57d"/>
      <g id="Group_248" data-name="Group 248" transform="translate(163.418 0)" opacity="0.5">
        <path id="Path_2069" data-name="Path 2069" d="M10.127,42.181a22.431,22.431,0,0,0,2.794-6.536c.662,11.8-2.929,7.6-3.276,7.4v.015l-1.2-.693a2.761,2.761,0,0,1-1.931.813,2.691,2.691,0,0,1-1.449-.428c-.855-.021-1.538-.455-1.538-.993A.648.648,0,0,1,3.58,41.5a3.1,3.1,0,0,1,1.852-5.164l.317-2.252-.5-.393a2.767,2.767,0,0,1-1.068-2.006c-.048-.828.3-1.788,1.863-2.277,0,0-.027-.288-.079-.743l-2.649-5.3s-1.06-2.428.077-2.5c1.633.284,1.35.923,1.563,1.492l.124.414H5.7C5.193,20,3.537,10.465,3.7,4.848V3.223L3.6,2.418.546,1.5A.768.768,0,0,1,.793,0L5.1.143a.768.768,0,0,1,.741.766V3.1h.776V4.858l.78,9.353.1.24L7.6,13.236,11.1,5.442l.78-1.364.339.182-.108-1.281L10.7,1.737a.768.768,0,0,1-.2-.894h0A.768.768,0,0,1,11.534.47l3.87,1.9a.768.768,0,0,1,.36,1l-.342.755a.764.764,0,0,1-.534.431l-.733.733.253.137L13.826,6.8l-3.508,8.184-.145,4.607a3.119,3.119,0,0,1,1.478,3.189h.226s-.5,2.9-.755,6.042l-.025.306V29.6s-.027.149-.072.389c-.275,3.1-.7,5.588-3.028,5.864l-.016-.015v.958a3.519,3.519,0,0,1,1.509,2.962,3.754,3.754,0,0,1-.451,1.8l1.087.621Z" transform="translate(0 0)" fill="url(#linear-gradient-4)"/>
      </g>
      <ellipse id="Ellipse_122" data-name="Ellipse 122" cx="2.893" cy="3.305" rx="2.893" ry="3.305" transform="translate(167.11 34.088)" fill="#795548"/>
      <path id="Path_2070" data-name="Path 2070" d="M2.268,1.7V0H0L.188,1.449Z" transform="translate(167.087 2.352)" fill="#fda57d"/>
      <path id="Path_2071" data-name="Path 2071" d="M.188,2.277,0,0H.126A3.643,3.643,0,0,1,2.548.921l.664.592-1.7,1.7Z" transform="translate(175.404 3.105)" fill="#fda57d"/>
      <path id="Path_2072" data-name="Path 2072" d="M.379,10.015.567,7.559,3.97,0,6.615,1.323,3.214,9.26l-.19,6.046H0Z" transform="translate(170.488 5.943)" fill="#4d8af0"/>
      <path id="Path_2073" data-name="Path 2073" d="M.379,10.015.567,7.559,3.97,0,6.615,1.323,3.214,9.26l-.19,6.046H0Z" transform="translate(170.488 5.943)" opacity="0.05"/>
      <path id="Path_2074" data-name="Path 2074" d="M3.651,8.84.439,2.424S-.6.068.513,0C2.1.275,1.821.9,2.028,1.449l2,6.83Z" transform="translate(166.46 19.823)" fill="#fda57d"/>
      <ellipse id="Ellipse_123" data-name="Ellipse 123" cx="3.024" cy="3.024" rx="3.024" ry="3.024" transform="translate(166.384 34.043)" fill="#fda57d"/>
      <path id="Path_2075" data-name="Path 2075" d="M2.645,1.105.526,0,0,3.75H2.645Z" transform="translate(168.789 31.709)" fill="#fda57d"/>
      <path id="Path_2076" data-name="Path 2076" d="M2.083,18.141S-.194,6.427.013,0H2.847L3.6,9.07l2.07,4.913a3.181,3.181,0,0,1,1.89,4.158Z" transform="translate(167.273 5.373)" fill="#4d8af0"/>
      <rect id="Rectangle_1500" data-name="Rectangle 1500" width="2.833" height="1.964" transform="translate(167.276 3.676)" fill="#4d8af0"/>
      <rect id="Rectangle_1501" data-name="Rectangle 1501" width="2.833" height="1.964" transform="translate(167.276 3.676)" fill="#fff" opacity="0.05"/>
      <path id="Path_2077" data-name="Path 2077" d="M0,1.511.786,0l2.5,1.318L2.62,2.871Z" transform="translate(174.381 4.608)" fill="#4d8af0"/>
      <path id="Path_2078" data-name="Path 2078" d="M4.088,2.192.53,1.455A.743.743,0,0,1,0,.743H0A.743.743,0,0,1,.768,0L4.949.139a.743.743,0,0,1,.718.743v.8c0,.414.081.536-.329.536H4.3A.744.744,0,0,1,4.088,2.192Z" transform="translate(163.687 0.677)" fill="#333"/>
      <path id="Path_2079" data-name="Path 2079" d="M3.709,12.669l-2.67-2.1A2.691,2.691,0,0,1,0,8.622c-.046-.807.288-1.734,1.8-2.206C1.8,6.416,1.235.368.292,0h7.18s-.482,2.8-.731,5.857C6.451,9.384,6.242,12.365,3.709,12.669Z" transform="translate(167.742 21.541)" fill="#eee"/>
      <path id="Path_2080" data-name="Path 2080" d="M0,11.563,1.7,8.539l-.2-6.8S.559.227,1.314.036a1.369,1.369,0,0,1,1.7,1.511V9.3s-.567,3.212-1.134,3.968Z" transform="translate(171.434 18.99)" fill="#fda57d"/>
      <path id="Path_2081" data-name="Path 2081" d="M3.063,3.295.256,1.306A.743.743,0,0,1,.066.439h0A.743.743,0,0,1,1.072.076L4.826,1.923a.743.743,0,0,1,.35.973l-.331.733c-.17.374-.373.455-.747.286L3.063,3.293C3,3.266,3.117,3.342,3.063,3.295Z" transform="translate(173.806 1.052)" fill="#333"/>
      <path id="Path_2082" data-name="Path 2082" d="M1.167.339.482,0,0,.836.677,1.2Z" transform="translate(171.788 38.866)" fill="#795548"/>
      <path id="Path_2083" data-name="Path 2083" d="M0,6.83S4.537,11.611,3.6,0a26.79,26.79,0,0,1-3.1,5.965Z" transform="translate(172.464 33.407)" fill="#795548"/>
      <ellipse id="Ellipse_124" data-name="Ellipse 124" cx="2.618" cy="2.893" rx="2.618" ry="2.893" transform="translate(167.661 34.492)" fill="#795548"/>
      <ellipse id="Ellipse_125" data-name="Ellipse 125" cx="1.55" cy="0.964" rx="1.55" ry="0.964" transform="translate(167.11 38.22)" fill="#795548"/>
      <g id="Group_249" data-name="Group 249" transform="translate(65.488 0.866)" opacity="0.5">
        <path id="Path_2084" data-name="Path 2084" d="M21.881,36.932c-.313.938-2.171-.329-2.171-.329l-.153-.207-3.311-4.464-8.08,4.52v2.024a2.811,2.811,0,0,1,2.459,3.27,3.048,3.048,0,0,1,1.035.828,1.548,1.548,0,0,1,.555,1.062.738.738,0,0,1-.01.19,1.018,1.018,0,0,1-.691.7,6.59,6.59,0,0,1-1.006.207,24.224,24.224,0,0,0-2.308.813,5.252,5.252,0,0,1-1.091.207,1.591,1.591,0,0,1-.784-.087,2.69,2.69,0,0,1-.673-.553,3.059,3.059,0,0,0-.882-.573A8.407,8.407,0,0,1,3.3,43.959a.863.863,0,0,1-.3-.3.806.806,0,0,1-.079-.414,2.113,2.113,0,0,1,.029-.381,4.257,4.257,0,0,1,.437-1.556,4.4,4.4,0,0,1,.882-.989l.735-.673a1.654,1.654,0,0,1,.505-.375.387.387,0,0,0,.114.277L5.392,37.9a4.815,4.815,0,0,1-1.366.207,1.783,1.783,0,0,1-1.532-.532.589.589,0,0,1-.041-.081C1.592,36.468-.383,33.157.778,25.116c-.1-.983-.159-1.606-.159-1.606v-.174l.012-.01.646-8.879L.035,5.7H.313V4.723H0V3.16S4.346,3.438,5,4.4c.548.807-2.181.491-3.125.358v.584h.017v.329h.329l1.242,5.938c1.285,2.223.621,7.778.621,7.778l1.563-.938,1.242-6.528L5.977,2.239h.277V1.563H5.89V0s4.346.277,5,1.242c.546.807-2.179.491-3.125.358l-.106.621h.19l1.242,8.751c.621,2.37-.224,9.328-.335,10.218l1.55,10.235-.023.029.023.145,6.251-2.188s.621-.621,1.267,1.242a21.556,21.556,0,0,0,2.461,4.361l.023.031S22.194,35.995,21.881,36.932Z" transform="translate(0)" fill="url(#linear-gradient-5)"/>
      </g>
      <path id="Path_2085" data-name="Path 2085" d="M0,1.521V0H1.521V2.13Z" transform="translate(66.574 5.779)" fill="#fda57d"/>
      <path id="Path_2086" data-name="Path 2086" d="M0,1.826V0L1.521.3l-.3,1.826Z" transform="translate(71.998 2.43)" fill="#fda57d"/>
      <path id="Path_2087" data-name="Path 2087" d="M2.339,13.375S-1.3,10.653.5,0Z" transform="translate(66.66 23.598)" fill="#4d8af0"/>
      <path id="Path_2088" data-name="Path 2088" d="M2.339,13.375S-1.3,10.653.5,0Z" transform="translate(66.66 23.598)" opacity="0.05"/>
      <path id="Path_2089" data-name="Path 2089" d="M1.37,0,1.217.913,0,.608V0Z" transform="translate(72.017 3.326)" opacity="0.05"/>
      <path id="Path_2090" data-name="Path 2090" d="M0,0H1.521V.915L0,.306Z" transform="translate(66.59 6.673)" opacity="0.05"/>
      <path id="Path_2091" data-name="Path 2091" d="M.3,3.653,0,1.523,2.738,0V3.045Z" transform="translate(71.142 34.667)" fill="#fda57d"/>
      <path id="Path_2092" data-name="Path 2092" d="M0,3.345l1.217,8.529L.584,20.693,8.5,18.563s.981-7.575.337-10.042L7.617,0H5.791L6.7,9.434,5.487,15.792,3.966,16.7s.642-5.41-.609-7.575L2.14,3.347Z" transform="translate(66.138 3.649)" fill="#eee"/>
      <path id="Path_2093" data-name="Path 2093" d="M2.262,1.863c-.3.913-2.113-.321-2.113-.321L0,1.335.718,0,.741.031S2.567.95,2.262,1.863Z" transform="translate(84.123 33.819)" fill="#fda57d"/>
      <path id="Path_2094" data-name="Path 2094" d="M4.862,16.3s-2.434.642-3.042-.3S0,2.3,0,2.3,3.618-.742,7.913.171L9.426,10.209Z" transform="translate(66.675 20.651)" opacity="0.05"/>
      <path id="Path_2095" data-name="Path 2095" d="M15.212,10.511l-9.62,5.381a4.8,4.8,0,0,1-2.277.621A1.729,1.729,0,0,1,1.825,16C1.217,15.05,0,2.3,0,2.3S3.618-.742,7.912.171L9.434,10.213l6.093-2.136s.609-.608,1.242,1.2a21.056,21.056,0,0,0,2.395,4.247l-.739,1.333Z" transform="translate(66.408 20.817)" fill="#4d8af0"/>
      <path id="Path_2096" data-name="Path 2096" d="M0,1.049A2.744,2.744,0,0,1,2.459.017V.611L.025,1.219Z" transform="translate(71.396 36.729)" opacity="0.05"/>
      <ellipse id="Ellipse_126" data-name="Ellipse 126" cx="2.738" cy="2.738" rx="2.738" ry="2.738" transform="translate(70.787 36.951)" fill="#fda57d"/>
      <path id="Path_2097" data-name="Path 2097" d="M0,1.521V0S4.226.271,4.87,1.217s-3.347.3-3.347.3Z" transform="translate(66.204 4.527)" fill="#333"/>
      <path id="Path_2098" data-name="Path 2098" d="M0,1.521V0S4.226.271,4.87,1.217s-3.347.3-3.347.3Z" transform="translate(71.576 1.466)" fill="#333"/>
      <path id="Path_2099" data-name="Path 2099" d="M3.052.7l1.07,1.532a2.616,2.616,0,0,0,.542.621.886.886,0,0,0,.78.174,1.588,1.588,0,0,0,.426-.259,1.827,1.827,0,0,1,1.378-.414A2.554,2.554,0,0,1,8.5,3.218a1.394,1.394,0,0,1,.53,1.118A.991.991,0,0,1,8.36,5a6.405,6.405,0,0,1-.979.207C6.6,5.365,5.9,5.772,5.134,6a5.112,5.112,0,0,1-1.062.207,1.549,1.549,0,0,1-.764-.085,2.621,2.621,0,0,1-.654-.538A2.978,2.978,0,0,0,1.8,5.027,9.2,9.2,0,0,1,.369,4.462a.84.84,0,0,1-.288-.286A1.1,1.1,0,0,1,.032,3.5,4.14,4.14,0,0,1,.458,1.983a4.284,4.284,0,0,1,.857-.962L2.029.364A1.6,1.6,0,0,1,2.522,0C2.491.228,2.917.5,3.052.7Z" transform="translate(68.776 37.683)" opacity="0.05"/>
      <path id="Path_2100" data-name="Path 2100" d="M3.052.687l1.07,1.532a2.617,2.617,0,0,0,.542.621.886.886,0,0,0,.78.174,1.585,1.585,0,0,0,.426-.259,1.828,1.828,0,0,1,1.378-.414A2.555,2.555,0,0,1,8.5,3.208a1.394,1.394,0,0,1,.53,1.118.991.991,0,0,1-.673.681,6.415,6.415,0,0,1-.979.207C6.6,5.367,5.9,5.775,5.134,6a5.107,5.107,0,0,1-1.062.207,1.547,1.547,0,0,1-.764-.085,2.618,2.618,0,0,1-.654-.538A2.98,2.98,0,0,0,1.8,5.029,9.2,9.2,0,0,1,.369,4.464a.84.84,0,0,1-.288-.288A1.1,1.1,0,0,1,.032,3.5,4.139,4.139,0,0,1,.458,1.983a4.285,4.285,0,0,1,.857-.962L2.029.364A1.606,1.606,0,0,1,2.522,0C2.491.217,2.917.495,3.052.687Z" transform="translate(68.776 37.789)" fill="#333"/>
    </g>
    <text id="Connect_collaborate_and_form_local_groups" data-name="Connect, collaborate 
and form local groups" transform="translate(1636 -2970)" fill="#fff" font-size="12" font-family="Roboto-Light, Roboto" font-weight="300"><tspan x="41.243" y="11">Connect, collaborate </tspan><tspan x="37.435" y="25">and form local groups</tspan></text>
  </g>
</svg>
