<svg xmlns="http://www.w3.org/2000/svg" width="174.198" height="149.761" viewBox="0 0 174.198 149.761">
  <g id="Group_314" data-name="Group 314" transform="translate(-1348.802 3097.761)">
    <text id="Share_and_learn_new_music_ideas" data-name="Share and learn new music ideas" transform="translate(1436 -2951)" fill="#fff" font-size="12" font-family="Roboto-Light, Roboto" font-weight="300"><tspan x="-86.271" y="0">Share and learn new music ideas</tspan></text>
    <g id="undraw_online_media_62jb_2_" data-name="undraw_online_media_62jb (2)" transform="translate(1520.582 -2979.327) rotate(180)">
      <rect id="Rectangle_1512" data-name="Rectangle 1512" width="86.419" height="63.021" transform="translate(55.498 14.531)" fill="#f2f2f2"/>
      <path id="Path_2203" data-name="Path 2203" d="M86.779,0H0V63.353H86.779ZM.36.333H86.419V63.021H.36Z" transform="translate(43.075 21.847)" fill="#3f3d56"/>
      <rect id="Rectangle_1513" data-name="Rectangle 1513" width="100.121" height="0.393" transform="translate(3.878 1.95)" fill="#3f3d56"/>
      <path id="Path_2204" data-name="Path 2204" d="M.051,0,0,32.924,40.354,16.515Z" transform="translate(74.351 34.755)" fill="#d0cde1"/>
      <path id="Path_2205" data-name="Path 2205" d="M0,1.348S3.8,5.293,4.591,3.79.727,0,.727,0Z" transform="translate(66.205 64.899)" fill="#a0616a"/>
      <path id="Path_2206" data-name="Path 2206" d="M22.993,11.35a5.73,5.73,0,0,1-2.18-1.27,6.787,6.787,0,0,0-2.119-1.427l-.142-.078-1.538-.846L15,6.621,8.622,3.113.205,0C.14,1.086.077,2.172.018,3.2,0,3.507,0,3.813,0,4.119c.106.03.214.057.324.078A10.521,10.521,0,0,1,3.876,5.4L8.744,8.113s3.822,2.25,6.247,3.306c.34.15.653.274.924.366l5.747,1.949.041-.075.879-1.571Z" transform="translate(45.203 53.269)" fill="#d0cde1"/>
      <path id="Path_2207" data-name="Path 2207" d="M22.993,11.35a5.73,5.73,0,0,1-2.18-1.27,6.787,6.787,0,0,0-2.119-1.427l-.142-.078-1.538-.846L15,6.621,8.622,3.113.205,0C.14,1.086.077,2.172.018,3.2,0,3.507,0,3.813,0,4.119c.106.03.214.057.324.078A10.521,10.521,0,0,1,3.876,5.4L8.744,8.113s3.822,2.25,6.247,3.306c.34.15.653.274.924.366l5.747,1.949.041-.075.879-1.571Z" transform="translate(45.203 53.269)" opacity="0.1"/>
      <path id="Path_2208" data-name="Path 2208" d="M.05,0,0,32.924,40.354,16.515Z" transform="translate(66.815 34.79)" fill="#e43a3a"/>
      <path id="Path_2209" data-name="Path 2209" d="M37.728,17.563,0,2.1,0,0l40.3,16.515Z" transform="translate(66.862 34.79)" opacity="0.2"/>
      <path id="Path_2210" data-name="Path 2210" d="M0,3.492V0H2.881l-.36,3.658Z" transform="translate(55.588 4.138)" fill="#a0616a"/>
      <path id="Path_2211" data-name="Path 2211" d="M.9,4.157,0,.166,3.6,0V4.157Z" transform="translate(43.525 3.639)" fill="#a0616a"/>
      <path id="Path_2212" data-name="Path 2212" d="M2.691,33.09s-.9.333-1.08-2.66-.36-13.3-.36-13.3S-.55,7.981.17,5.321A19.008,19.008,0,0,0,.89.831H4.131l.18,1.663.18,4.49a17.264,17.264,0,0,1,1.26,7.981L10.072,27.1l2.16-12.97a22.419,22.419,0,0,1-.72-6.485c.18-3.326.18-7.649.18-7.649l3.6.333,2.881,15.63s1.62,15.63,0,16.462S2.691,33.09,2.691,33.09Z" transform="translate(43.175 6.3)" fill="#2f2e41"/>
      <path id="Path_2213" data-name="Path 2213" d="M3.886,5.113s-1.62,2-2.34.5S-.795,2.12.465,1.122s2.881-1.33,3.421-1,6.121,2.993,6.121,2.993,1.08,2.827-1.08,2.993a6.446,6.446,0,0,0-2.881.665Z" transform="translate(52.782 0.189)" fill="#2f2e41"/>
      <path id="Path_2214" data-name="Path 2214" d="M3.955,4.8s0,1.663-.72,1.164-1.26-2.66-1.26-2.66S-2.346.147,1.795.147,8.636-.518,8.276.979s-.9,3.991-.9,3.991S5.576,7.131,3.955,4.8Z" transform="translate(40.29 0)" fill="#2f2e41"/>
      <ellipse id="Ellipse_131" data-name="Ellipse 131" cx="4.501" cy="4.157" rx="4.501" ry="4.157" transform="translate(51.087 68.156)" fill="#a0616a"/>
      <path id="Path_2215" data-name="Path 2215" d="M1.9,6.319S1.177,1.5.1.831,7.3,0,7.3,0s-.54,3.824,0,4.822Z" transform="translate(50.179 64.581)" fill="#a0616a"/>
      <path id="Path_2216" data-name="Path 2216" d="M1.62,4.826S4.321.17,2.521,0,0,4.66,0,4.66Z" transform="translate(64.589 33.067)" fill="#a0616a"/>
      <path id="Path_2217" data-name="Path 2217" d="M1.3.314a3.545,3.545,0,0,1,4.084.839c.606.731.957,1.8,1.922,2.023.63.148,1.358-.132,1.92.17,1.051.562.313,2.344,1.288,3.012A1.623,1.623,0,0,0,8.871,7.794c-.025-.311-.468-.451-.791-.36A6.116,6.116,0,0,0,7.2,7.9a3.441,3.441,0,0,1-1.739.15A7.359,7.359,0,0,1,1.235,6.79,3.947,3.947,0,0,1,.055,3.174,5.7,5.7,0,0,1,1.368.344Z" transform="translate(50.127 68.981)" fill="#2f2e41"/>
      <path id="Path_2218" data-name="Path 2218" d="M17.464,25.607l-.025-.166-.367-2.5L15.564,12.686l-.081-.547s.178-.4.4-1.039a14.937,14.937,0,0,0,.909-4.476,6.889,6.889,0,0,0-.05-.969A50.56,50.56,0,0,1,16.389.486C16.383.176,16.383,0,16.383,0L0,.5a6.684,6.684,0,0,1,.272.652,11.09,11.09,0,0,1,.628,5C.74,7.559.49,11.392.263,15.21.2,16.3.135,17.381.076,18.409c-.018.308-.022.614-.014.92A11.907,11.907,0,0,0,5.041,28.6s.331-.013.853-.042a38.506,38.506,0,0,0,6.289-.695,1.408,1.408,0,0,0,.149-.058c.537-.244,1.658-.728,2.717-1.177C16.3,26.1,17.464,25.607,17.464,25.607Z" transform="translate(45.145 38.059)" fill="#d0cde1"/>
      <path id="Path_2219" data-name="Path 2219" d="M0,26.771H2.521s2.161-2.328,1.8-4.656a8.578,8.578,0,0,1,0-3.492L5.4,13.469a51.159,51.159,0,0,0,1.26-7.483V.333L3.781,0a4.849,4.849,0,0,1-.54,2.328,5.892,5.892,0,0,0-.72,2.328L.36,15.3Z" transform="translate(60.088 36.729)" fill="#d0cde1"/>
      <path id="Path_2315" data-name="Path 2315" d="M0,0,5.51-.143,5.372,4.873l-5.51.143Z" transform="matrix(0.933, 0.361, -0.361, 0.933, 20.024, 60.004)" fill="#e43a3a"/>
      <path id="Path_2220" data-name="Path 2220" d="M7.5,1.952,2.04,0,0,4.872,5.464,6.823ZM2.211.341,7.129,2.1,5.293,6.482.375,4.726Z" transform="translate(16.773 60.272)" fill="#3f3d56"/>
      <path id="Path_2316" data-name="Path 2316" d="M0,0,5.185.131,5.311,5.46.126,5.329Z" transform="translate(150.656 101.443) rotate(-71.027)" fill="#e43a3a"/>
      <path id="Path_2221" data-name="Path 2221" d="M1.9,0,0,5.117l5.348,1.7L7.253,1.7ZM.363,4.946,2.077.341,6.89,1.869,5.176,6.474Z" transform="translate(150.991 97.434)" fill="#3f3d56"/>
      <path id="Path_2222" data-name="Path 2222" d="M9.077,0,8.849.079C8.8.1,3.809,1.862,1.472,5.865S.279,14.69.291,14.738l.054.219.228-.079c.05-.017,5.04-1.783,7.377-5.787S9.142.268,9.131.22ZM1.846,6.052C3.822,2.667,7.765.932,8.764.536a12.824,12.824,0,0,1-1.189,8.37C5.6,12.287,1.657,14.024.657,14.422A12.822,12.822,0,0,1,1.846,6.052Z" transform="translate(6.135 2.092)" fill="#3f3d56"/>
      <path id="Path_2223" data-name="Path 2223" d="M9.393,7.122A14.137,14.137,0,0,0,15.211.152S10.019-.7,5.818,1.634A14.137,14.137,0,0,0,0,8.6S5.193,9.456,9.393,7.122Z" transform="translate(0 2.24)" fill="#e43a3a"/>
      <rect id="Rectangle_1516" data-name="Rectangle 1516" width="167.976" height="0.333" transform="translate(3.804 113.935)" fill="#3f3d56"/>
      <ellipse id="Ellipse_132" data-name="Ellipse 132" cx="1.631" cy="1.507" rx="1.631" ry="1.507" transform="translate(5.604 115.421)" fill="#3f3d56"/>
      <ellipse id="Ellipse_133" data-name="Ellipse 133" cx="1.631" cy="1.507" rx="1.631" ry="1.507" transform="translate(10.634 115.421)" fill="#3f3d56"/>
      <ellipse id="Ellipse_134" data-name="Ellipse 134" cx="1.631" cy="1.507" rx="1.631" ry="1.507" transform="translate(15.664 115.421)" fill="#3f3d56"/>
      <rect id="Rectangle_1517" data-name="Rectangle 1517" width="38.421" height="0.399" transform="translate(66.161 102.496)" fill="#3f3d56"/>
      <rect id="Rectangle_1518" data-name="Rectangle 1518" width="38.421" height="0.399" transform="translate(66.161 99.705)" fill="#3f3d56"/>
      <rect id="Rectangle_1519" data-name="Rectangle 1519" width="38.421" height="0.399" transform="translate(66.161 96.914)" fill="#3f3d56"/>
    </g>
  </g>
</svg>
