<svg xmlns="http://www.w3.org/2000/svg" xmlns:xlink="http://www.w3.org/1999/xlink" viewBox="0 0 3802.48 818.94"><defs><style>.cls-1{fill:#fff;}.cls-2{fill:url(#New_Gradient_Swatch);}</style><linearGradient id="New_Gradient_Swatch" y1="409.47" x2="3802.48" y2="409.47" gradientUnits="userSpaceOnUse"><stop offset="0" stop-color="#e43a3a"/><stop offset="1" stop-color="#e20272"/></linearGradient></defs><title>Logo SVG</title><g id="Layer_2" data-name="Layer 2"><g id="Layer_1-2" data-name="Layer 1"><path class="cls-1" d="M1380.08,370.11q-56,0-84.34,36.43t-28.33,97.82V658.19h-75.56V299.27h75.56v72.19A156.36,156.36,0,0,1,1317,316.14q31.37-21.58,66.45-22.27l.67,76.24Z"/><path class="cls-1" d="M1807.12,511.79H1525.79q2.7,39.13,35.76,63.08t75.56,23.94q67.46,0,102.55-42.5l43.18,47.23q-58,60-151.13,60-75.56,0-128.52-50.26t-53-134.93q0-84.66,54-134.59t127.18-49.93q73.18,0,124.47,44.19t51.27,121.78Zm-281.33-59.37h205.77q0-45.19-28.33-69.49t-69.83-24.29a119.5,119.5,0,0,0-74.55,25.3Q1525.79,409.25,1525.79,452.42Z"/><path class="cls-1" d="M1979.16,463.89v194.3H1903.6V299.27h75.56v65.44q16.18-33,48.91-51.95a138.76,138.76,0,0,1,70.5-18.89q85,0,115.37,70.17,53.28-70.17,132.9-70.17,60.72,0,98.17,37.11t37.44,107.27V658.19h-75.56v-197q0-99.18-82.31-99.18-38.46,0-67.13,24.63t-30,71.85v199.7h-75.56v-197q0-51.27-18.22-75.23T2076.31,362q-39.14,0-68.14,26T1979.16,463.89Z"/><path class="cls-1" d="M3130.1,658.19h-75.56V163.47h75.56Z"/><path class="cls-1" d="M3328.44,658.19h-75.56V163.47h75.56Z"/><path class="cls-1" d="M1087.27,592.07c-24.27,5.92-30.12,6.78-46.31,6.78s-29-5.77-38-15.89-13.5-23.72-13.5-40.81V324.75h94.46V264H989.45V151.36h0L913.89,171.6V264h-45.2v60.72h45.2V540.12q0,56.67,34.07,90.07t82.31,33.39c20.1,0,39.1-1.71,57-11Z"/><path class="cls-1" d="M3748.5,613.94q-54,53.64-134.93,53.64t-134.93-53.64q-54-53.62-54-131.22t54-131.22q54-53.62,134.93-53.63T3748.5,351.5q54,53.64,54,131.22T3748.5,613.94Zm-216.22-46.55q32,32.73,81.29,32.72t81.3-32.72q32-32.71,32.05-84.67t-32.05-84.67q-32.05-32.71-81.3-32.72t-81.29,32.72q-32.06,32.73-32.05,84.67T3532.28,567.39Z"/><polygon class="cls-1" points="3694.68 482.72 3568.61 409.93 3568.61 555.51 3694.68 482.72"/><path class="cls-1" d="M2769.41,289.77c-104.33,0-188.9,84.58-188.9,188.9s84.57,188.91,188.9,188.91,188.9-84.58,188.9-188.91S2873.74,289.77,2769.41,289.77Zm45,261.69-126.07-72.79,126.07-72.78Z"/><path class="cls-2" d="M380.32,818.88h.43A373.5,373.5,0,0,0,688.13,647.29c.22-.33.43-.66.64-1l1-1.58a372.56,372.56,0,0,0,29.16-56.13l.18-.43q1.47-3.55,2.87-7.13c.28-.72.55-1.43.82-2.14q1.05-2.71,2.05-5.45a372.6,372.6,0,0,0,12-216.92c-.12-.5-.25-1-.37-1.48-.55-2.2-1.11-4.39-1.7-6.58-.24-.92-.5-1.83-.75-2.75-.5-1.8-1-3.59-1.52-5.38-.32-1.11-.66-2.22-1-3.32q-.74-2.46-1.5-4.9c-.36-1.12-.73-2.24-1.1-3.36-.54-1.67-1.09-3.32-1.66-5-.34-1-.68-2-1-2.95q-1-2.77-2-5.52c-.27-.72-.53-1.43-.8-2.14-.82-2.18-1.66-4.34-2.52-6.5-.13-.31-.25-.62-.37-.93A371.93,371.93,0,0,0,582.87,135.36l0,.07A371.66,371.66,0,0,0,403.11,72.62h0L277.5.1a.77.77,0,0,0-1.15.67v241.6a50,50,0,0,0-18.88-3.29c-33.24,0-59.83,6.2-83.76,22.16-14.63,9.75-23.05,25.7-28.36,42.54-2.66,8.42-4.88,16.4-4.88,24.82,0,22.6,16.4,32.35,37.23,32.35,33.23,0,59.38-6.65,83.31-22.6,14.62-9.75,23.49-25.71,28.81-42.55,2.65-8.42,4.43-16.39,4.43-24.81,0-.5,0-1,0-1.45,0,0,0-.05,0-.16V68.18L385.74,121V378.16a47,47,0,0,0-18.9-3.54c-33.23,0-59.82,6.66-83.75,23.77C268.46,408.85,260,426,254.73,444c-2.66,9-4.88,17.59-4.88,26.62,0,24.24,16.4,34.7,37.23,34.7,33.23,0,59.38-7.13,83.31-24.24,14.62-10.46,23.49-27.57,28.81-45.64,2.65-9,4.43-17.58,4.43-26.61,0-.22,0-.43,0-.65a1.72,1.72,0,0,0,0-.34V239.19A208.89,208.89,0,1,1,166.37,469.06l-.3-2.67H131l.32,3.29A243.64,243.64,0,1,0,403.64,204V130.94a316.15,316.15,0,0,1,261,191.41q4.35,10.29,7.93,20.8c.22.63.44,1.26.65,1.89.46,1.37.89,2.74,1.33,4.12s.8,2.48,1.18,3.73c.26.86.51,1.72.76,2.58.49,1.66,1,3.32,1.45,5,.22.77.42,1.54.62,2.32.45,1.65.9,3.3,1.32,4.95.47,1.89.93,3.79,1.37,5.68.1.46.22.93.33,1.39a318.05,318.05,0,0,1-13.79,185.54l-.45,1.11q-1.08,2.74-2.24,5.48-.67,1.62-1.38,3.24l-1.35,3.1c-.85,1.89-1.7,3.77-2.58,5.64-.11.24-.23.48-.34.73q-5,10.62-10.87,21-6.93,12.25-14.85,23.73A318.33,318.33,0,0,1,550.21,707l-.44.3c-1.61,1.09-3.24,2.15-4.87,3.2l-2.16,1.39-3.28,2.05c-1.27.78-2.54,1.56-3.81,2.32l-1.74,1c-1.81,1.06-3.62,2.11-5.45,3.14l-.17.09a318.17,318.17,0,0,1-135.12,39.76l-3.19.2-1.68.07q-7.28.33-14.6.34-4,0-7.94-.1h-.16q-3.62-.09-7.21-.27c-.75,0-1.49-.08-2.23-.12l-4.89-.3c-1.54-.11-3.09-.23-4.64-.37l-2.3-.2c-2.29-.21-4.58-.44-6.88-.71a317.69,317.69,0,0,1-182.07-85.6l-2.07-2q-1.67-1.61-3.3-3.24c-.87-.87-1.71-1.75-2.57-2.63s-2-2-2.92-3c-.64-.67-1.26-1.35-1.89-2-1.24-1.33-2.48-2.66-3.69-4l-.72-.8q-7.6-8.54-14.62-17.64A317.46,317.46,0,0,1,58.52,462.54c-.06-1-.1-2.08-.15-3.12a316.39,316.39,0,0,1,1.73-50.61,312.88,312.88,0,0,1,33.49-109L43,271.17A371.72,371.72,0,0,0,.19,456.68h0c5.72,189.77,152.9,344,339.69,360.74h0l3.47.3,1.48.12,2.28.16,2.61.18,1.43.08c1.13.07,2.26.14,3.39.19l.93,0c1.27.06,2.54.12,3.81.16l.75,0c1.29,0,2.59.09,3.88.12l.92,0,3.59.07,1.4,0h7.11ZM275.63,283.39c-8.86,11.08-29.69,23.93-46.08,34.57s-37.23,24.37-51,28.36a21.19,21.19,0,0,1-5.31.45c-9.31,0-18.62-7.54-18.62-18.17a19,19,0,0,1,4.88-12.41c8.86-11.08,29.69-23.93,46.09-34.57s36.78-24.37,50.52-28.36a21.66,21.66,0,0,1,5.31-.44c9.31,0,18.62,7.53,18.62,18.17A18.52,18.52,0,0,1,275.63,283.39ZM385,422.16c-8.86,11.88-29.69,25.66-46.08,37.07s-37.23,26.14-51,30.42a19.91,19.91,0,0,1-5.31.48c-9.31,0-18.62-8.08-18.62-19.49a21.28,21.28,0,0,1,4.88-13.31c8.86-11.88,29.69-25.67,46.09-37.08s36.78-26.14,50.52-30.42a20.32,20.32,0,0,1,5.31-.47c9.31,0,18.62,8.08,18.62,19.49A20.81,20.81,0,0,1,385,422.16Z"/><circle class="cls-2" cx="486.33" cy="450.18" r="42.32"/><path class="cls-2" d="M1380.08,370.11q-56,0-84.34,36.43t-28.33,97.82V658.19h-75.56V299.27h75.56v72.19A156.36,156.36,0,0,1,1317,316.14q31.37-21.58,66.45-22.27l.67,76.24Z"/><path class="cls-2" d="M1807.12,511.79H1525.79q2.7,39.13,35.76,63.08t75.56,23.94q67.46,0,102.55-42.5l43.18,47.23q-58,60-151.13,60-75.56,0-128.52-50.26t-53-134.93q0-84.66,54-134.59t127.18-49.93q73.18,0,124.47,44.19t51.27,121.78Zm-281.33-59.37h205.77q0-45.19-28.33-69.49t-69.83-24.29a119.5,119.5,0,0,0-74.55,25.3Q1525.79,409.25,1525.79,452.42Z"/><path class="cls-2" d="M1979.16,463.89v194.3H1903.6V299.27h75.56v65.44q16.18-33,48.91-51.95a138.76,138.76,0,0,1,70.5-18.89q85,0,115.37,70.17,53.28-70.17,132.9-70.17,60.72,0,98.17,37.11t37.44,107.27V658.19h-75.56v-197q0-99.18-82.31-99.18-38.46,0-67.13,24.63t-30,71.85v199.7h-75.56v-197q0-51.27-18.22-75.23T2076.31,362q-39.14,0-68.14,26T1979.16,463.89Z"/><path class="cls-2" d="M3130.1,658.19h-75.56V163.47h75.56Z"/><path class="cls-2" d="M3328.44,658.19h-75.56V163.47h75.56Z"/><path class="cls-2" d="M1087.27,592.07c-24.27,5.92-30.12,6.78-46.31,6.78s-29-5.77-38-15.89-13.5-23.72-13.5-40.81V324.75h94.46V264H989.45V151.36h0L913.89,171.6V264h-45.2v60.72h45.2V540.12q0,56.67,34.07,90.07t82.31,33.39c20.1,0,39.1-1.71,57-11Z"/><path class="cls-2" d="M3748.5,613.94q-54,53.64-134.93,53.64t-134.93-53.64q-54-53.62-54-131.22t54-131.22q54-53.62,134.93-53.63T3748.5,351.5q54,53.64,54,131.22T3748.5,613.94Zm-216.22-46.55q32,32.73,81.29,32.72t81.3-32.72q32-32.71,32.05-84.67t-32.05-84.67q-32.05-32.71-81.3-32.72t-81.29,32.72q-32.06,32.73-32.05,84.67T3532.28,567.39Z"/><polygon class="cls-2" points="3694.68 482.72 3568.61 409.93 3568.61 555.51 3694.68 482.72"/><path class="cls-2" d="M2769.41,289.77c-104.33,0-188.9,84.58-188.9,188.9s84.57,188.91,188.9,188.91,188.9-84.58,188.9-188.91S2873.74,289.77,2769.41,289.77Zm45,261.69-126.07-72.79,126.07-72.78Z"/><path class="cls-2" d="M1380.08,370.11q-56,0-84.34,36.43t-28.33,97.82V658.19h-75.56V299.27h75.56v72.19A156.36,156.36,0,0,1,1317,316.14q31.37-21.58,66.45-22.27l.67,76.24Z"/><path class="cls-2" d="M1807.12,511.79H1525.79q2.7,39.13,35.76,63.08t75.56,23.94q67.46,0,102.55-42.5l43.18,47.23q-58,60-151.13,60-75.56,0-128.52-50.26t-53-134.93q0-84.66,54-134.59t127.18-49.93q73.18,0,124.47,44.19t51.27,121.78Zm-281.33-59.37h205.77q0-45.19-28.33-69.49t-69.83-24.29a119.5,119.5,0,0,0-74.55,25.3Q1525.79,409.25,1525.79,452.42Z"/><path class="cls-2" d="M1979.16,463.89v194.3H1903.6V299.27h75.56v65.44q16.18-33,48.91-51.95a138.76,138.76,0,0,1,70.5-18.89q85,0,115.37,70.17,53.28-70.17,132.9-70.17,60.72,0,98.17,37.11t37.44,107.27V658.19h-75.56v-197q0-99.18-82.31-99.18-38.46,0-67.13,24.63t-30,71.85v199.7h-75.56v-197q0-51.27-18.22-75.23T2076.31,362q-39.14,0-68.14,26T1979.16,463.89Z"/><path class="cls-2" d="M3130.1,658.19h-75.56V163.47h75.56Z"/><path class="cls-2" d="M3328.44,658.19h-75.56V163.47h75.56Z"/><path class="cls-2" d="M1087.27,592.07c-24.27,5.92-30.12,6.78-46.31,6.78s-29-5.77-38-15.89-13.5-23.72-13.5-40.81V324.75h94.46V264H989.45V151.36h0L913.89,171.6V264h-45.2v60.72h45.2V540.12q0,56.67,34.07,90.07t82.31,33.39c20.1,0,39.1-1.71,57-11Z"/><path class="cls-2" d="M3748.5,613.94q-54,53.64-134.93,53.64t-134.93-53.64q-54-53.62-54-131.22t54-131.22q54-53.62,134.93-53.63T3748.5,351.5q54,53.64,54,131.22T3748.5,613.94Zm-216.22-46.55q32,32.73,81.29,32.72t81.3-32.72q32-32.71,32.05-84.67t-32.05-84.67q-32.05-32.71-81.3-32.72t-81.29,32.72q-32.06,32.73-32.05,84.67T3532.28,567.39Z"/><polygon class="cls-2" points="3694.68 482.72 3568.61 409.93 3568.61 555.51 3694.68 482.72"/><path class="cls-2" d="M2769.41,289.77c-104.33,0-188.9,84.58-188.9,188.9s84.57,188.91,188.9,188.91,188.9-84.58,188.9-188.91S2873.74,289.77,2769.41,289.77Zm45,261.69-126.07-72.79,126.07-72.78Z"/><path class="cls-2" d="M1380.08,370.11q-56,0-84.34,36.43t-28.33,97.82V658.19h-75.56V299.27h75.56v72.19A156.36,156.36,0,0,1,1317,316.14q31.37-21.58,66.45-22.27l.67,76.24Z"/><path class="cls-2" d="M1807.12,511.79H1525.79q2.7,39.13,35.76,63.08t75.56,23.94q67.46,0,102.55-42.5l43.18,47.23q-58,60-151.13,60-75.56,0-128.52-50.26t-53-134.93q0-84.66,54-134.59t127.18-49.93q73.18,0,124.47,44.19t51.27,121.78Zm-281.33-59.37h205.77q0-45.19-28.33-69.49t-69.83-24.29a119.5,119.5,0,0,0-74.55,25.3Q1525.79,409.25,1525.79,452.42Z"/><path class="cls-2" d="M1979.16,463.89v194.3H1903.6V299.27h75.56v65.44q16.18-33,48.91-51.95a138.76,138.76,0,0,1,70.5-18.89q85,0,115.37,70.17,53.28-70.17,132.9-70.17,60.72,0,98.17,37.11t37.44,107.27V658.19h-75.56v-197q0-99.18-82.31-99.18-38.46,0-67.13,24.63t-30,71.85v199.7h-75.56v-197q0-51.27-18.22-75.23T2076.31,362q-39.14,0-68.14,26T1979.16,463.89Z"/><path class="cls-2" d="M3130.1,658.19h-75.56V163.47h75.56Z"/><path class="cls-2" d="M3328.44,658.19h-75.56V163.47h75.56Z"/><path class="cls-2" d="M1087.27,592.07c-24.27,5.92-30.12,6.78-46.31,6.78s-29-5.77-38-15.89-13.5-23.72-13.5-40.81V324.75h94.46V264H989.45V151.36h0L913.89,171.6V264h-45.2v60.72h45.2V540.12q0,56.67,34.07,90.07t82.31,33.39c20.1,0,39.1-1.71,57-11Z"/><path class="cls-2" d="M3748.5,613.94q-54,53.64-134.93,53.64t-134.93-53.64q-54-53.62-54-131.22t54-131.22q54-53.62,134.93-53.63T3748.5,351.5q54,53.64,54,131.22T3748.5,613.94Zm-216.22-46.55q32,32.73,81.29,32.72t81.3-32.72q32-32.71,32.05-84.67t-32.05-84.67q-32.05-32.71-81.3-32.72t-81.29,32.72q-32.06,32.73-32.05,84.67T3532.28,567.39Z"/><polygon class="cls-2" points="3694.68 482.72 3568.61 409.93 3568.61 555.51 3694.68 482.72"/><path class="cls-2" d="M2769.41,289.77c-104.33,0-188.9,84.58-188.9,188.9s84.57,188.91,188.9,188.91,188.9-84.58,188.9-188.91S2873.74,289.77,2769.41,289.77Zm45,261.69-126.07-72.79,126.07-72.78Z"/></g></g></svg>